<mxfile host="Electron" agent="Mozilla/5.0 (Windows NT 10.0; Win64; x64) AppleWebKit/537.36 (KHTML, like Gecko) draw.io/26.2.2 Chrome/134.0.6998.178 Electron/35.1.2 Safari/537.36" version="26.2.2">
  <diagram name="Page-1" id="eBEfu0daf325Ha8z5MCO">
    <mxGraphModel dx="2078" dy="849" grid="1" gridSize="10" guides="1" tooltips="1" connect="1" arrows="1" fold="1" page="1" pageScale="1" pageWidth="850" pageHeight="1100" math="0" shadow="0">
      <root>
        <mxCell id="0" />
        <mxCell id="1" parent="0" />
        <mxCell id="whS2_qXfrG-GNI4Fqoqk-1" value="sd Capture Germination" style="shape=umlFrame;whiteSpace=wrap;html=1;pointerEvents=0;recursiveResize=0;container=1;collapsible=0;width=160;" parent="1" vertex="1">
          <mxGeometry x="-100" y="350" width="1000" height="710" as="geometry" />
        </mxCell>
        <mxCell id="2kn59-IRRM6XUF5Lcga7-1" value="&lt;div&gt;&lt;br&gt;&lt;/div&gt;&lt;div&gt;&lt;br&gt;&lt;/div&gt;&lt;div&gt;&lt;br&gt;&lt;/div&gt;&lt;div&gt;&lt;br&gt;&lt;/div&gt;User" style="shape=umlLifeline;perimeter=lifelinePerimeter;whiteSpace=wrap;html=1;container=1;dropTarget=0;collapsible=0;recursiveResize=0;outlineConnect=0;portConstraint=eastwest;newEdgeStyle={&quot;curved&quot;:0,&quot;rounded&quot;:0};participant=umlActor;" vertex="1" parent="whS2_qXfrG-GNI4Fqoqk-1">
          <mxGeometry x="25" y="50" width="20" height="650" as="geometry" />
        </mxCell>
        <mxCell id="2kn59-IRRM6XUF5Lcga7-5" value="" style="html=1;points=[[0,0,0,0,5],[0,1,0,0,-5],[1,0,0,0,5],[1,1,0,0,-5]];perimeter=orthogonalPerimeter;outlineConnect=0;targetShapes=umlLifeline;portConstraint=eastwest;newEdgeStyle={&quot;curved&quot;:0,&quot;rounded&quot;:0};" vertex="1" parent="2kn59-IRRM6XUF5Lcga7-1">
          <mxGeometry x="5" y="70" width="10" height="560" as="geometry" />
        </mxCell>
        <mxCell id="2kn59-IRRM6XUF5Lcga7-2" value=":User Interface" style="shape=umlLifeline;perimeter=lifelinePerimeter;whiteSpace=wrap;html=1;container=1;dropTarget=0;collapsible=0;recursiveResize=0;outlineConnect=0;portConstraint=eastwest;newEdgeStyle={&quot;curved&quot;:0,&quot;rounded&quot;:0};" vertex="1" parent="whS2_qXfrG-GNI4Fqoqk-1">
          <mxGeometry x="170" y="50" width="100" height="650" as="geometry" />
        </mxCell>
        <mxCell id="2kn59-IRRM6XUF5Lcga7-6" value="" style="html=1;points=[[0,0,0,0,5],[0,1,0,0,-5],[1,0,0,0,5],[1,1,0,0,-5]];perimeter=orthogonalPerimeter;outlineConnect=0;targetShapes=umlLifeline;portConstraint=eastwest;newEdgeStyle={&quot;curved&quot;:0,&quot;rounded&quot;:0};" vertex="1" parent="2kn59-IRRM6XUF5Lcga7-2">
          <mxGeometry x="45" y="80" width="10" height="550" as="geometry" />
        </mxCell>
        <mxCell id="2kn59-IRRM6XUF5Lcga7-45" value="" style="html=1;points=[[0,0,0,0,5],[0,1,0,0,-5],[1,0,0,0,5],[1,1,0,0,-5]];perimeter=orthogonalPerimeter;outlineConnect=0;targetShapes=umlLifeline;portConstraint=eastwest;newEdgeStyle={&quot;curved&quot;:0,&quot;rounded&quot;:0};" vertex="1" parent="2kn59-IRRM6XUF5Lcga7-2">
          <mxGeometry x="50" y="280" width="10" height="20" as="geometry" />
        </mxCell>
        <mxCell id="2kn59-IRRM6XUF5Lcga7-3" value=":API" style="shape=umlLifeline;perimeter=lifelinePerimeter;whiteSpace=wrap;html=1;container=1;dropTarget=0;collapsible=0;recursiveResize=0;outlineConnect=0;portConstraint=eastwest;newEdgeStyle={&quot;curved&quot;:0,&quot;rounded&quot;:0};" vertex="1" parent="whS2_qXfrG-GNI4Fqoqk-1">
          <mxGeometry x="490" y="50" width="100" height="650" as="geometry" />
        </mxCell>
        <mxCell id="2kn59-IRRM6XUF5Lcga7-7" value="" style="html=1;points=[[0,0,0,0,5],[0,1,0,0,-5],[1,0,0,0,5],[1,1,0,0,-5]];perimeter=orthogonalPerimeter;outlineConnect=0;targetShapes=umlLifeline;portConstraint=eastwest;newEdgeStyle={&quot;curved&quot;:0,&quot;rounded&quot;:0};" vertex="1" parent="2kn59-IRRM6XUF5Lcga7-3">
          <mxGeometry x="45" y="120" width="10" height="450" as="geometry" />
        </mxCell>
        <mxCell id="2kn59-IRRM6XUF5Lcga7-4" value=":Database" style="shape=umlLifeline;perimeter=lifelinePerimeter;whiteSpace=wrap;html=1;container=1;dropTarget=0;collapsible=0;recursiveResize=0;outlineConnect=0;portConstraint=eastwest;newEdgeStyle={&quot;curved&quot;:0,&quot;rounded&quot;:0};" vertex="1" parent="whS2_qXfrG-GNI4Fqoqk-1">
          <mxGeometry x="860" y="50" width="100" height="650" as="geometry" />
        </mxCell>
        <mxCell id="2kn59-IRRM6XUF5Lcga7-8" value="" style="html=1;points=[[0,0,0,0,5],[0,1,0,0,-5],[1,0,0,0,5],[1,1,0,0,-5]];perimeter=orthogonalPerimeter;outlineConnect=0;targetShapes=umlLifeline;portConstraint=eastwest;newEdgeStyle={&quot;curved&quot;:0,&quot;rounded&quot;:0};" vertex="1" parent="2kn59-IRRM6XUF5Lcga7-4">
          <mxGeometry x="45" y="140" width="10" height="410" as="geometry" />
        </mxCell>
        <mxCell id="2kn59-IRRM6XUF5Lcga7-9" value="" style="html=1;points=[[0,0,0,0,5],[0,1,0,0,-5],[1,0,0,0,5],[1,1,0,0,-5]];perimeter=orthogonalPerimeter;outlineConnect=0;targetShapes=umlLifeline;portConstraint=eastwest;newEdgeStyle={&quot;curved&quot;:0,&quot;rounded&quot;:0};" vertex="1" parent="2kn59-IRRM6XUF5Lcga7-4">
          <mxGeometry width="10" height="40" as="geometry" />
        </mxCell>
        <mxCell id="2kn59-IRRM6XUF5Lcga7-10" value="" style="html=1;points=[[0,0,0,0,5],[0,1,0,0,-5],[1,0,0,0,5],[1,1,0,0,-5]];perimeter=orthogonalPerimeter;outlineConnect=0;targetShapes=umlLifeline;portConstraint=eastwest;newEdgeStyle={&quot;curved&quot;:0,&quot;rounded&quot;:0};" vertex="1" parent="2kn59-IRRM6XUF5Lcga7-4">
          <mxGeometry x="90" width="10" height="40" as="geometry" />
        </mxCell>
        <mxCell id="2kn59-IRRM6XUF5Lcga7-34" value="" style="html=1;points=[[0,0,0,0,5],[0,1,0,0,-5],[1,0,0,0,5],[1,1,0,0,-5]];perimeter=orthogonalPerimeter;outlineConnect=0;targetShapes=umlLifeline;portConstraint=eastwest;newEdgeStyle={&quot;curved&quot;:0,&quot;rounded&quot;:0};direction=south;" vertex="1" parent="2kn59-IRRM6XUF5Lcga7-4">
          <mxGeometry x="50" y="170" width="10" height="15" as="geometry" />
        </mxCell>
        <mxCell id="2kn59-IRRM6XUF5Lcga7-18" value="" style="html=1;verticalAlign=bottom;labelBackgroundColor=none;endArrow=block;endFill=1;dashed=1;rounded=0;" edge="1" parent="whS2_qXfrG-GNI4Fqoqk-1" target="2kn59-IRRM6XUF5Lcga7-5">
          <mxGeometry width="160" relative="1" as="geometry">
            <mxPoint x="40" y="150" as="sourcePoint" />
            <mxPoint x="200" y="150" as="targetPoint" />
            <Array as="points" />
          </mxGeometry>
        </mxCell>
        <mxCell id="2kn59-IRRM6XUF5Lcga7-28" value="" style="endArrow=classic;html=1;rounded=0;" edge="1" parent="whS2_qXfrG-GNI4Fqoqk-1" target="2kn59-IRRM6XUF5Lcga7-2">
          <mxGeometry width="50" height="50" relative="1" as="geometry">
            <mxPoint x="40" y="130" as="sourcePoint" />
            <mxPoint x="90" y="80" as="targetPoint" />
          </mxGeometry>
        </mxCell>
        <mxCell id="2kn59-IRRM6XUF5Lcga7-29" value="click submit button" style="text;html=1;align=center;verticalAlign=middle;whiteSpace=wrap;rounded=0;" vertex="1" parent="whS2_qXfrG-GNI4Fqoqk-1">
          <mxGeometry x="70" y="100" width="110" height="30" as="geometry" />
        </mxCell>
        <mxCell id="2kn59-IRRM6XUF5Lcga7-30" value="" style="endArrow=classic;html=1;rounded=0;" edge="1" parent="whS2_qXfrG-GNI4Fqoqk-1" target="2kn59-IRRM6XUF5Lcga7-7">
          <mxGeometry width="50" height="50" relative="1" as="geometry">
            <mxPoint x="221" y="170" as="sourcePoint" />
            <mxPoint x="525.5" y="170" as="targetPoint" />
            <Array as="points">
              <mxPoint x="371" y="170" />
              <mxPoint x="381" y="170" />
              <mxPoint x="421" y="170" />
            </Array>
          </mxGeometry>
        </mxCell>
        <mxCell id="2kn59-IRRM6XUF5Lcga7-31" value="selectPlot(pId)" style="text;html=1;align=center;verticalAlign=middle;whiteSpace=wrap;rounded=0;" vertex="1" parent="whS2_qXfrG-GNI4Fqoqk-1">
          <mxGeometry x="290" y="140" width="110" height="30" as="geometry" />
        </mxCell>
        <mxCell id="2kn59-IRRM6XUF5Lcga7-32" value="" style="endArrow=classic;html=1;rounded=0;" edge="1" parent="whS2_qXfrG-GNI4Fqoqk-1" source="2kn59-IRRM6XUF5Lcga7-7" target="2kn59-IRRM6XUF5Lcga7-8">
          <mxGeometry width="50" height="50" relative="1" as="geometry">
            <mxPoint x="550" y="190" as="sourcePoint" />
            <mxPoint x="834.5" y="190" as="targetPoint" />
            <Array as="points">
              <mxPoint x="680" y="190" />
              <mxPoint x="690" y="190" />
              <mxPoint x="730" y="190" />
            </Array>
          </mxGeometry>
        </mxCell>
        <mxCell id="2kn59-IRRM6XUF5Lcga7-33" value="getPlot(pId)" style="text;html=1;align=center;verticalAlign=middle;whiteSpace=wrap;rounded=0;" vertex="1" parent="whS2_qXfrG-GNI4Fqoqk-1">
          <mxGeometry x="630" y="160" width="110" height="30" as="geometry" />
        </mxCell>
        <mxCell id="2kn59-IRRM6XUF5Lcga7-35" style="edgeStyle=orthogonalEdgeStyle;rounded=0;orthogonalLoop=1;jettySize=auto;html=1;curved=0;entryX=1;entryY=1;entryDx=0;entryDy=-5;entryPerimeter=0;" edge="1" parent="whS2_qXfrG-GNI4Fqoqk-1">
          <mxGeometry relative="1" as="geometry">
            <mxPoint x="910" y="210" as="sourcePoint" />
            <mxPoint x="915" y="225" as="targetPoint" />
            <Array as="points">
              <mxPoint x="910" y="210" />
              <mxPoint x="930" y="210" />
              <mxPoint x="930" y="225" />
            </Array>
          </mxGeometry>
        </mxCell>
        <mxCell id="2kn59-IRRM6XUF5Lcga7-36" value="" style="html=1;verticalAlign=bottom;labelBackgroundColor=none;endArrow=block;endFill=1;dashed=1;rounded=0;exitX=0.5;exitY=1;exitDx=0;exitDy=0;exitPerimeter=0;entryX=1;entryY=0.089;entryDx=0;entryDy=0;entryPerimeter=0;" edge="1" parent="whS2_qXfrG-GNI4Fqoqk-1">
          <mxGeometry width="160" relative="1" as="geometry">
            <mxPoint x="915" y="230" as="sourcePoint" />
            <mxPoint x="910" y="250" as="targetPoint" />
            <Array as="points">
              <mxPoint x="935" y="230" />
              <mxPoint x="935" y="240" />
              <mxPoint x="935" y="250" />
            </Array>
          </mxGeometry>
        </mxCell>
        <mxCell id="2kn59-IRRM6XUF5Lcga7-37" value="exists()" style="text;html=1;align=center;verticalAlign=middle;whiteSpace=wrap;rounded=0;" vertex="1" parent="whS2_qXfrG-GNI4Fqoqk-1">
          <mxGeometry x="900" y="200" width="110" height="30" as="geometry" />
        </mxCell>
        <mxCell id="2kn59-IRRM6XUF5Lcga7-38" value="alt" style="shape=umlFrame;whiteSpace=wrap;html=1;pointerEvents=0;recursiveResize=0;container=1;collapsible=0;width=30;height=20;" vertex="1" parent="whS2_qXfrG-GNI4Fqoqk-1">
          <mxGeometry x="180" y="260" width="770" height="420" as="geometry" />
        </mxCell>
        <mxCell id="2kn59-IRRM6XUF5Lcga7-39" value="" style="endArrow=none;dashed=1;html=1;rounded=0;entryX=0.997;entryY=0.461;entryDx=0;entryDy=0;entryPerimeter=0;" edge="1" parent="2kn59-IRRM6XUF5Lcga7-38">
          <mxGeometry width="50" height="50" relative="1" as="geometry">
            <mxPoint x="2" y="110.92" as="sourcePoint" />
            <mxPoint x="769.69" y="109.99999999999993" as="targetPoint" />
          </mxGeometry>
        </mxCell>
        <mxCell id="2kn59-IRRM6XUF5Lcga7-40" value="[true]" style="text;html=1;align=center;verticalAlign=middle;whiteSpace=wrap;rounded=0;" vertex="1" parent="2kn59-IRRM6XUF5Lcga7-38">
          <mxGeometry x="-40" y="110" width="110" height="30" as="geometry" />
        </mxCell>
        <mxCell id="2kn59-IRRM6XUF5Lcga7-41" value="[false]" style="text;html=1;align=center;verticalAlign=middle;whiteSpace=wrap;rounded=0;" vertex="1" parent="2kn59-IRRM6XUF5Lcga7-38">
          <mxGeometry x="-40" y="20" width="110" height="30" as="geometry" />
        </mxCell>
        <mxCell id="2kn59-IRRM6XUF5Lcga7-42" value="" style="html=1;verticalAlign=bottom;labelBackgroundColor=none;endArrow=block;endFill=1;dashed=1;rounded=0;" edge="1" parent="2kn59-IRRM6XUF5Lcga7-38">
          <mxGeometry width="160" relative="1" as="geometry">
            <mxPoint x="730" y="34.5" as="sourcePoint" />
            <mxPoint x="360" y="35" as="targetPoint" />
          </mxGeometry>
        </mxCell>
        <mxCell id="2kn59-IRRM6XUF5Lcga7-43" value="return error" style="text;html=1;align=center;verticalAlign=middle;whiteSpace=wrap;rounded=0;" vertex="1" parent="2kn59-IRRM6XUF5Lcga7-38">
          <mxGeometry x="450" y="10" width="110" height="30" as="geometry" />
        </mxCell>
        <mxCell id="2kn59-IRRM6XUF5Lcga7-44" value="" style="html=1;verticalAlign=bottom;labelBackgroundColor=none;endArrow=block;endFill=1;dashed=1;rounded=0;" edge="1" parent="2kn59-IRRM6XUF5Lcga7-38">
          <mxGeometry width="160" relative="1" as="geometry">
            <mxPoint x="345" y="50.5" as="sourcePoint" />
            <mxPoint x="45" y="50" as="targetPoint" />
          </mxGeometry>
        </mxCell>
        <mxCell id="2kn59-IRRM6XUF5Lcga7-46" style="edgeStyle=orthogonalEdgeStyle;rounded=0;orthogonalLoop=1;jettySize=auto;html=1;curved=0;entryX=1;entryY=1;entryDx=0;entryDy=-5;entryPerimeter=0;" edge="1" parent="2kn59-IRRM6XUF5Lcga7-38">
          <mxGeometry relative="1" as="geometry">
            <mxPoint x="40" y="60" as="sourcePoint" />
            <mxPoint x="45" y="75" as="targetPoint" />
            <Array as="points">
              <mxPoint x="40" y="60" />
              <mxPoint x="60" y="60" />
              <mxPoint x="60" y="75" />
            </Array>
          </mxGeometry>
        </mxCell>
        <mxCell id="2kn59-IRRM6XUF5Lcga7-47" value="" style="html=1;verticalAlign=bottom;labelBackgroundColor=none;endArrow=block;endFill=1;dashed=1;rounded=0;exitX=0.5;exitY=1;exitDx=0;exitDy=0;exitPerimeter=0;entryX=1;entryY=0.089;entryDx=0;entryDy=0;entryPerimeter=0;" edge="1" parent="2kn59-IRRM6XUF5Lcga7-38">
          <mxGeometry width="160" relative="1" as="geometry">
            <mxPoint x="50" y="80" as="sourcePoint" />
            <mxPoint x="45" y="100" as="targetPoint" />
            <Array as="points">
              <mxPoint x="70" y="80" />
              <mxPoint x="70" y="90" />
              <mxPoint x="70" y="100" />
            </Array>
          </mxGeometry>
        </mxCell>
        <mxCell id="2kn59-IRRM6XUF5Lcga7-48" value="DisplayError" style="text;html=1;align=center;verticalAlign=middle;whiteSpace=wrap;rounded=0;" vertex="1" parent="2kn59-IRRM6XUF5Lcga7-38">
          <mxGeometry x="50" y="60" width="110" height="30" as="geometry" />
        </mxCell>
        <mxCell id="2kn59-IRRM6XUF5Lcga7-49" value="message(&quot;Plot chosen doesn&#39;t exist&quot;" style="text;html=1;align=center;verticalAlign=middle;whiteSpace=wrap;rounded=0;" vertex="1" parent="2kn59-IRRM6XUF5Lcga7-38">
          <mxGeometry x="90" y="20" width="190" height="30" as="geometry" />
        </mxCell>
        <mxCell id="2kn59-IRRM6XUF5Lcga7-50" value="" style="html=1;verticalAlign=bottom;labelBackgroundColor=none;endArrow=block;endFill=1;dashed=1;rounded=0;entryX=1;entryY=0.244;entryDx=0;entryDy=0;entryPerimeter=0;" edge="1" parent="2kn59-IRRM6XUF5Lcga7-38">
          <mxGeometry width="160" relative="1" as="geometry">
            <mxPoint x="730" y="150.5" as="sourcePoint" />
            <mxPoint x="350" y="150" as="targetPoint" />
          </mxGeometry>
        </mxCell>
        <mxCell id="2kn59-IRRM6XUF5Lcga7-51" value="return(Plot)" style="text;html=1;align=center;verticalAlign=middle;whiteSpace=wrap;rounded=0;" vertex="1" parent="2kn59-IRRM6XUF5Lcga7-38">
          <mxGeometry x="460" y="120" width="110" height="30" as="geometry" />
        </mxCell>
        <mxCell id="2kn59-IRRM6XUF5Lcga7-52" value="" style="html=1;verticalAlign=bottom;labelBackgroundColor=none;endArrow=block;endFill=1;dashed=1;rounded=0;" edge="1" parent="2kn59-IRRM6XUF5Lcga7-38" target="2kn59-IRRM6XUF5Lcga7-6">
          <mxGeometry width="160" relative="1" as="geometry">
            <mxPoint x="340" y="160.5" as="sourcePoint" />
            <mxPoint x="70" y="160" as="targetPoint" />
          </mxGeometry>
        </mxCell>
        <mxCell id="2kn59-IRRM6XUF5Lcga7-53" value="show(PlotInfo)" style="text;html=1;align=center;verticalAlign=middle;whiteSpace=wrap;rounded=0;" vertex="1" parent="2kn59-IRRM6XUF5Lcga7-38">
          <mxGeometry x="100" y="130" width="190" height="30" as="geometry" />
        </mxCell>
        <mxCell id="2kn59-IRRM6XUF5Lcga7-60" value="" style="endArrow=classic;html=1;rounded=0;" edge="1" parent="2kn59-IRRM6XUF5Lcga7-38" target="2kn59-IRRM6XUF5Lcga7-7">
          <mxGeometry width="50" height="50" relative="1" as="geometry">
            <mxPoint x="40" y="194.5" as="sourcePoint" />
            <mxPoint x="215" y="194.5" as="targetPoint" />
          </mxGeometry>
        </mxCell>
        <mxCell id="2kn59-IRRM6XUF5Lcga7-62" value="seedPlant(sId,name, date,estHarvest, plot, readyHarv)" style="text;html=1;align=center;verticalAlign=middle;whiteSpace=wrap;rounded=0;" vertex="1" parent="2kn59-IRRM6XUF5Lcga7-38">
          <mxGeometry x="50" y="170" width="300" height="30" as="geometry" />
        </mxCell>
        <mxCell id="2kn59-IRRM6XUF5Lcga7-65" value=":Plant" style="shape=umlLifeline;perimeter=lifelinePerimeter;whiteSpace=wrap;html=1;container=1;dropTarget=0;collapsible=0;recursiveResize=0;outlineConnect=0;portConstraint=eastwest;newEdgeStyle={&quot;curved&quot;:0,&quot;rounded&quot;:0};" vertex="1" parent="2kn59-IRRM6XUF5Lcga7-38">
          <mxGeometry x="610" y="220" width="100" height="180" as="geometry" />
        </mxCell>
        <mxCell id="2kn59-IRRM6XUF5Lcga7-66" value="" style="html=1;verticalAlign=bottom;labelBackgroundColor=none;endArrow=open;endFill=0;dashed=1;rounded=0;entryX=0.02;entryY=0.091;entryDx=0;entryDy=0;entryPerimeter=0;" edge="1" parent="2kn59-IRRM6XUF5Lcga7-38" target="2kn59-IRRM6XUF5Lcga7-65">
          <mxGeometry width="160" relative="1" as="geometry">
            <mxPoint x="350" y="236" as="sourcePoint" />
            <mxPoint x="510" y="240" as="targetPoint" />
          </mxGeometry>
        </mxCell>
        <mxCell id="2kn59-IRRM6XUF5Lcga7-67" value="addPlant(sId,name, date,estHarvest,plot,readyHarv)" style="text;html=1;align=center;verticalAlign=middle;whiteSpace=wrap;rounded=0;" vertex="1" parent="2kn59-IRRM6XUF5Lcga7-38">
          <mxGeometry x="365" y="200" width="225" height="30" as="geometry" />
        </mxCell>
        <mxCell id="2kn59-IRRM6XUF5Lcga7-68" value="" style="endArrow=classic;html=1;rounded=0;" edge="1" parent="2kn59-IRRM6XUF5Lcga7-38" target="2kn59-IRRM6XUF5Lcga7-8">
          <mxGeometry width="50" height="50" relative="1" as="geometry">
            <mxPoint x="350" y="269.5" as="sourcePoint" />
            <mxPoint x="525" y="269.5" as="targetPoint" />
          </mxGeometry>
        </mxCell>
        <mxCell id="2kn59-IRRM6XUF5Lcga7-69" value="addPlant(Plant)" style="text;html=1;align=center;verticalAlign=middle;whiteSpace=wrap;rounded=0;" vertex="1" parent="2kn59-IRRM6XUF5Lcga7-38">
          <mxGeometry x="365" y="240" width="225" height="30" as="geometry" />
        </mxCell>
        <mxCell id="2kn59-IRRM6XUF5Lcga7-70" value="" style="html=1;verticalAlign=bottom;labelBackgroundColor=none;endArrow=block;endFill=1;dashed=1;rounded=0;entryX=1;entryY=0.244;entryDx=0;entryDy=0;entryPerimeter=0;" edge="1" parent="2kn59-IRRM6XUF5Lcga7-38">
          <mxGeometry width="160" relative="1" as="geometry">
            <mxPoint x="730" y="330.5" as="sourcePoint" />
            <mxPoint x="350" y="330" as="targetPoint" />
          </mxGeometry>
        </mxCell>
        <mxCell id="2kn59-IRRM6XUF5Lcga7-71" value="success" style="text;html=1;align=center;verticalAlign=middle;whiteSpace=wrap;rounded=0;" vertex="1" parent="2kn59-IRRM6XUF5Lcga7-38">
          <mxGeometry x="460" y="300" width="110" height="30" as="geometry" />
        </mxCell>
        <mxCell id="2kn59-IRRM6XUF5Lcga7-73" value="message(&quot;successful&quot;)" style="text;html=1;align=center;verticalAlign=middle;whiteSpace=wrap;rounded=0;" vertex="1" parent="2kn59-IRRM6XUF5Lcga7-38">
          <mxGeometry x="75" y="320" width="240" height="30" as="geometry" />
        </mxCell>
        <mxCell id="2kn59-IRRM6XUF5Lcga7-74" value="" style="html=1;points=[[0,0,0,0,5],[0,1,0,0,-5],[1,0,0,0,5],[1,1,0,0,-5]];perimeter=orthogonalPerimeter;outlineConnect=0;targetShapes=umlLifeline;portConstraint=eastwest;newEdgeStyle={&quot;curved&quot;:0,&quot;rounded&quot;:0};" vertex="1" parent="2kn59-IRRM6XUF5Lcga7-38">
          <mxGeometry x="40" y="370" width="10" height="20" as="geometry" />
        </mxCell>
        <mxCell id="2kn59-IRRM6XUF5Lcga7-75" style="edgeStyle=orthogonalEdgeStyle;rounded=0;orthogonalLoop=1;jettySize=auto;html=1;curved=0;entryX=1;entryY=1;entryDx=0;entryDy=-5;entryPerimeter=0;" edge="1" parent="2kn59-IRRM6XUF5Lcga7-38">
          <mxGeometry relative="1" as="geometry">
            <mxPoint x="40" y="360" as="sourcePoint" />
            <mxPoint x="45" y="375" as="targetPoint" />
            <Array as="points">
              <mxPoint x="40" y="360" />
              <mxPoint x="60" y="360" />
              <mxPoint x="60" y="375" />
            </Array>
          </mxGeometry>
        </mxCell>
        <mxCell id="2kn59-IRRM6XUF5Lcga7-76" value="" style="html=1;verticalAlign=bottom;labelBackgroundColor=none;endArrow=block;endFill=1;dashed=1;rounded=0;exitX=0.5;exitY=1;exitDx=0;exitDy=0;exitPerimeter=0;entryX=1;entryY=0.089;entryDx=0;entryDy=0;entryPerimeter=0;" edge="1" parent="2kn59-IRRM6XUF5Lcga7-38">
          <mxGeometry width="160" relative="1" as="geometry">
            <mxPoint x="50" y="380" as="sourcePoint" />
            <mxPoint x="45" y="400" as="targetPoint" />
            <Array as="points">
              <mxPoint x="70" y="380" />
              <mxPoint x="70" y="390" />
              <mxPoint x="70" y="400" />
            </Array>
          </mxGeometry>
        </mxCell>
        <mxCell id="2kn59-IRRM6XUF5Lcga7-77" value="DisplayMessage" style="text;html=1;align=center;verticalAlign=middle;whiteSpace=wrap;rounded=0;" vertex="1" parent="2kn59-IRRM6XUF5Lcga7-38">
          <mxGeometry x="50" y="360" width="110" height="30" as="geometry" />
        </mxCell>
        <mxCell id="2kn59-IRRM6XUF5Lcga7-72" value="" style="html=1;verticalAlign=bottom;labelBackgroundColor=none;endArrow=block;endFill=1;dashed=1;rounded=0;" edge="1" parent="2kn59-IRRM6XUF5Lcga7-38">
          <mxGeometry width="160" relative="1" as="geometry">
            <mxPoint x="355" y="350" as="sourcePoint" />
            <mxPoint x="45" y="350" as="targetPoint" />
          </mxGeometry>
        </mxCell>
        <mxCell id="2kn59-IRRM6XUF5Lcga7-58" value="" style="endArrow=classic;html=1;rounded=0;" edge="1" parent="whS2_qXfrG-GNI4Fqoqk-1">
          <mxGeometry width="50" height="50" relative="1" as="geometry">
            <mxPoint x="37.5" y="444.5" as="sourcePoint" />
            <mxPoint x="212.5" y="444.5" as="targetPoint" />
          </mxGeometry>
        </mxCell>
        <mxCell id="2kn59-IRRM6XUF5Lcga7-59" value="submit seed info" style="text;html=1;align=center;verticalAlign=middle;whiteSpace=wrap;rounded=0;" vertex="1" parent="whS2_qXfrG-GNI4Fqoqk-1">
          <mxGeometry x="45" y="420" width="110" height="30" as="geometry" />
        </mxCell>
        <mxCell id="whS2_qXfrG-GNI4Fqoqk-2" value="sd CheckField Condition" style="shape=umlFrame;whiteSpace=wrap;html=1;pointerEvents=0;recursiveResize=0;container=1;collapsible=0;width=160;" parent="1" vertex="1">
          <mxGeometry x="-100" y="1170" width="1000" height="710" as="geometry" />
        </mxCell>
        <mxCell id="whS2_qXfrG-GNI4Fqoqk-6" value="&lt;div&gt;&lt;br&gt;&lt;/div&gt;&lt;div&gt;&lt;br&gt;&lt;/div&gt;&lt;div&gt;&lt;br&gt;&lt;/div&gt;&lt;div&gt;&lt;span style=&quot;background-color: transparent; color: light-dark(rgb(0, 0, 0), rgb(255, 255, 255));&quot;&gt;&lt;br&gt;&lt;/span&gt;&lt;/div&gt;&lt;div&gt;&lt;span style=&quot;background-color: transparent; color: light-dark(rgb(0, 0, 0), rgb(255, 255, 255));&quot;&gt;User&lt;/span&gt;&lt;/div&gt;" style="shape=umlLifeline;perimeter=lifelinePerimeter;whiteSpace=wrap;html=1;container=1;dropTarget=0;collapsible=0;recursiveResize=0;outlineConnect=0;portConstraint=eastwest;newEdgeStyle={&quot;curved&quot;:0,&quot;rounded&quot;:0};participant=umlActor;" parent="whS2_qXfrG-GNI4Fqoqk-2" vertex="1">
          <mxGeometry x="30" y="50" width="20" height="650" as="geometry" />
        </mxCell>
        <mxCell id="whS2_qXfrG-GNI4Fqoqk-7" value="" style="html=1;points=[[0,0,0,0,5],[0,1,0,0,-5],[1,0,0,0,5],[1,1,0,0,-5]];perimeter=orthogonalPerimeter;outlineConnect=0;targetShapes=umlLifeline;portConstraint=eastwest;newEdgeStyle={&quot;curved&quot;:0,&quot;rounded&quot;:0};" parent="whS2_qXfrG-GNI4Fqoqk-6" vertex="1">
          <mxGeometry x="5" y="70" width="10" height="560" as="geometry" />
        </mxCell>
        <mxCell id="whS2_qXfrG-GNI4Fqoqk-8" value=":User Interface" style="shape=umlLifeline;perimeter=lifelinePerimeter;whiteSpace=wrap;html=1;container=1;dropTarget=0;collapsible=0;recursiveResize=0;outlineConnect=0;portConstraint=eastwest;newEdgeStyle={&quot;curved&quot;:0,&quot;rounded&quot;:0};" parent="whS2_qXfrG-GNI4Fqoqk-2" vertex="1">
          <mxGeometry x="180" y="60" width="100" height="640" as="geometry" />
        </mxCell>
        <mxCell id="whS2_qXfrG-GNI4Fqoqk-9" value="" style="html=1;points=[[0,0,0,0,5],[0,1,0,0,-5],[1,0,0,0,5],[1,1,0,0,-5]];perimeter=orthogonalPerimeter;outlineConnect=0;targetShapes=umlLifeline;portConstraint=eastwest;newEdgeStyle={&quot;curved&quot;:0,&quot;rounded&quot;:0};" parent="whS2_qXfrG-GNI4Fqoqk-8" vertex="1">
          <mxGeometry x="45" y="70" width="10" height="540" as="geometry" />
        </mxCell>
        <mxCell id="whS2_qXfrG-GNI4Fqoqk-58" value="" style="html=1;points=[[0,0,0,0,5],[0,1,0,0,-5],[1,0,0,0,5],[1,1,0,0,-5]];perimeter=orthogonalPerimeter;outlineConnect=0;targetShapes=umlLifeline;portConstraint=eastwest;newEdgeStyle={&quot;curved&quot;:0,&quot;rounded&quot;:0};" parent="whS2_qXfrG-GNI4Fqoqk-8" vertex="1">
          <mxGeometry x="50" y="330" width="10" height="10" as="geometry" />
        </mxCell>
        <mxCell id="whS2_qXfrG-GNI4Fqoqk-10" value=":API" style="shape=umlLifeline;perimeter=lifelinePerimeter;whiteSpace=wrap;html=1;container=1;dropTarget=0;collapsible=0;recursiveResize=0;outlineConnect=0;portConstraint=eastwest;newEdgeStyle={&quot;curved&quot;:0,&quot;rounded&quot;:0};" parent="whS2_qXfrG-GNI4Fqoqk-2" vertex="1">
          <mxGeometry x="590" y="50" width="100" height="640" as="geometry" />
        </mxCell>
        <mxCell id="whS2_qXfrG-GNI4Fqoqk-11" value="" style="html=1;points=[[0,0,0,0,5],[0,1,0,0,-5],[1,0,0,0,5],[1,1,0,0,-5]];perimeter=orthogonalPerimeter;outlineConnect=0;targetShapes=umlLifeline;portConstraint=eastwest;newEdgeStyle={&quot;curved&quot;:0,&quot;rounded&quot;:0};" parent="whS2_qXfrG-GNI4Fqoqk-10" vertex="1">
          <mxGeometry x="45" y="110" width="10" height="420" as="geometry" />
        </mxCell>
        <mxCell id="whS2_qXfrG-GNI4Fqoqk-12" value=":Database" style="shape=umlLifeline;perimeter=lifelinePerimeter;whiteSpace=wrap;html=1;container=1;dropTarget=0;collapsible=0;recursiveResize=0;outlineConnect=0;portConstraint=eastwest;newEdgeStyle={&quot;curved&quot;:0,&quot;rounded&quot;:0};" parent="whS2_qXfrG-GNI4Fqoqk-2" vertex="1">
          <mxGeometry x="880" y="50" width="100" height="650" as="geometry" />
        </mxCell>
        <mxCell id="whS2_qXfrG-GNI4Fqoqk-13" value="" style="html=1;points=[[0,0,0,0,5],[0,1,0,0,-5],[1,0,0,0,5],[1,1,0,0,-5]];perimeter=orthogonalPerimeter;outlineConnect=0;targetShapes=umlLifeline;portConstraint=eastwest;newEdgeStyle={&quot;curved&quot;:0,&quot;rounded&quot;:0};" parent="whS2_qXfrG-GNI4Fqoqk-12" vertex="1">
          <mxGeometry x="45" y="120" width="10" height="400" as="geometry" />
        </mxCell>
        <mxCell id="whS2_qXfrG-GNI4Fqoqk-14" value="" style="html=1;points=[[0,0,0,0,5],[0,1,0,0,-5],[1,0,0,0,5],[1,1,0,0,-5]];perimeter=orthogonalPerimeter;outlineConnect=0;targetShapes=umlLifeline;portConstraint=eastwest;newEdgeStyle={&quot;curved&quot;:0,&quot;rounded&quot;:0};" parent="whS2_qXfrG-GNI4Fqoqk-12" vertex="1">
          <mxGeometry width="10" height="40" as="geometry" />
        </mxCell>
        <mxCell id="whS2_qXfrG-GNI4Fqoqk-17" value="" style="html=1;points=[[0,0,0,0,5],[0,1,0,0,-5],[1,0,0,0,5],[1,1,0,0,-5]];perimeter=orthogonalPerimeter;outlineConnect=0;targetShapes=umlLifeline;portConstraint=eastwest;newEdgeStyle={&quot;curved&quot;:0,&quot;rounded&quot;:0};" parent="whS2_qXfrG-GNI4Fqoqk-12" vertex="1">
          <mxGeometry x="90" width="10" height="40" as="geometry" />
        </mxCell>
        <mxCell id="whS2_qXfrG-GNI4Fqoqk-30" value="" style="html=1;points=[[0,0,0,0,5],[0,1,0,0,-5],[1,0,0,0,5],[1,1,0,0,-5]];perimeter=orthogonalPerimeter;outlineConnect=0;targetShapes=umlLifeline;portConstraint=eastwest;newEdgeStyle={&quot;curved&quot;:0,&quot;rounded&quot;:0};" parent="whS2_qXfrG-GNI4Fqoqk-12" vertex="1">
          <mxGeometry x="50" y="130" width="10" height="10" as="geometry" />
        </mxCell>
        <mxCell id="whS2_qXfrG-GNI4Fqoqk-18" value="" style="endArrow=classic;html=1;rounded=0;" parent="whS2_qXfrG-GNI4Fqoqk-2" source="whS2_qXfrG-GNI4Fqoqk-7" target="whS2_qXfrG-GNI4Fqoqk-8" edge="1">
          <mxGeometry width="50" height="50" relative="1" as="geometry">
            <mxPoint x="60" y="170" as="sourcePoint" />
            <mxPoint x="110" y="120" as="targetPoint" />
            <Array as="points">
              <mxPoint x="130" y="130" />
            </Array>
          </mxGeometry>
        </mxCell>
        <mxCell id="whS2_qXfrG-GNI4Fqoqk-19" value="click CheckField Button" style="text;html=1;align=center;verticalAlign=middle;whiteSpace=wrap;rounded=0;" parent="whS2_qXfrG-GNI4Fqoqk-2" vertex="1">
          <mxGeometry x="70" y="100" width="130" height="30" as="geometry" />
        </mxCell>
        <mxCell id="whS2_qXfrG-GNI4Fqoqk-20" value="alt" style="shape=umlFrame;whiteSpace=wrap;html=1;pointerEvents=0;recursiveResize=0;container=1;collapsible=0;width=40;height=30;" parent="whS2_qXfrG-GNI4Fqoqk-2" vertex="1">
          <mxGeometry x="180" y="210" width="810" height="420" as="geometry" />
        </mxCell>
        <mxCell id="whS2_qXfrG-GNI4Fqoqk-22" value="" style="endArrow=none;dashed=1;html=1;rounded=0;entryX=1;entryY=0.42;entryDx=0;entryDy=0;entryPerimeter=0;" parent="whS2_qXfrG-GNI4Fqoqk-20" edge="1">
          <mxGeometry width="50" height="50" relative="1" as="geometry">
            <mxPoint y="124.19999999999999" as="sourcePoint" />
            <mxPoint x="810" y="120.00000000000017" as="targetPoint" />
          </mxGeometry>
        </mxCell>
        <mxCell id="whS2_qXfrG-GNI4Fqoqk-36" value="[true]" style="text;html=1;align=center;verticalAlign=middle;whiteSpace=wrap;rounded=0;" parent="whS2_qXfrG-GNI4Fqoqk-20" vertex="1">
          <mxGeometry x="-30" y="120" width="100" height="30" as="geometry" />
        </mxCell>
        <mxCell id="whS2_qXfrG-GNI4Fqoqk-37" value="[false]" style="text;html=1;align=center;verticalAlign=middle;whiteSpace=wrap;rounded=0;" parent="whS2_qXfrG-GNI4Fqoqk-20" vertex="1">
          <mxGeometry x="-30" y="40" width="100" height="30" as="geometry" />
        </mxCell>
        <mxCell id="whS2_qXfrG-GNI4Fqoqk-38" value="error" style="html=1;verticalAlign=bottom;endArrow=open;dashed=1;endSize=8;curved=0;rounded=0;" parent="whS2_qXfrG-GNI4Fqoqk-20" target="whS2_qXfrG-GNI4Fqoqk-11" edge="1">
          <mxGeometry relative="1" as="geometry">
            <mxPoint x="750" y="60" as="sourcePoint" />
            <mxPoint x="455" y="70" as="targetPoint" />
            <Array as="points">
              <mxPoint x="695" y="60" />
            </Array>
          </mxGeometry>
        </mxCell>
        <mxCell id="whS2_qXfrG-GNI4Fqoqk-39" value="" style="html=1;verticalAlign=bottom;endArrow=open;dashed=1;endSize=8;curved=0;rounded=0;exitX=0;exitY=1;exitDx=0;exitDy=0;" parent="whS2_qXfrG-GNI4Fqoqk-20" target="whS2_qXfrG-GNI4Fqoqk-9" edge="1">
          <mxGeometry relative="1" as="geometry">
            <mxPoint x="460" y="80" as="sourcePoint" />
            <mxPoint x="180" y="80" as="targetPoint" />
          </mxGeometry>
        </mxCell>
        <mxCell id="whS2_qXfrG-GNI4Fqoqk-41" value="message(&quot;Plot doesn&#39;t exist, check your input&quot;)" style="text;html=1;align=center;verticalAlign=middle;whiteSpace=wrap;rounded=0;" parent="whS2_qXfrG-GNI4Fqoqk-20" vertex="1">
          <mxGeometry x="120" y="50" width="280" height="30" as="geometry" />
        </mxCell>
        <mxCell id="whS2_qXfrG-GNI4Fqoqk-42" value="" style="html=1;points=[[0,0,0,0,5],[0,1,0,0,-5],[1,0,0,0,5],[1,1,0,0,-5]];perimeter=orthogonalPerimeter;outlineConnect=0;targetShapes=umlLifeline;portConstraint=eastwest;newEdgeStyle={&quot;curved&quot;:0,&quot;rounded&quot;:0};" parent="whS2_qXfrG-GNI4Fqoqk-20" vertex="1">
          <mxGeometry x="50" y="90" width="10" height="10" as="geometry" />
        </mxCell>
        <mxCell id="whS2_qXfrG-GNI4Fqoqk-52" style="edgeStyle=orthogonalEdgeStyle;rounded=0;orthogonalLoop=1;jettySize=auto;html=1;curved=0;entryX=1;entryY=0;entryDx=0;entryDy=5;entryPerimeter=0;" parent="whS2_qXfrG-GNI4Fqoqk-20" edge="1">
          <mxGeometry relative="1" as="geometry">
            <mxPoint x="50" y="80" as="sourcePoint" />
            <mxPoint x="60" y="95" as="targetPoint" />
            <Array as="points">
              <mxPoint x="70" y="80" />
              <mxPoint x="70" y="95" />
            </Array>
          </mxGeometry>
        </mxCell>
        <mxCell id="whS2_qXfrG-GNI4Fqoqk-53" value="" style="html=1;verticalAlign=bottom;labelBackgroundColor=none;endArrow=block;endFill=1;dashed=1;rounded=0;" parent="whS2_qXfrG-GNI4Fqoqk-20" edge="1">
          <mxGeometry width="160" relative="1" as="geometry">
            <mxPoint x="60" y="100" as="sourcePoint" />
            <mxPoint x="50" y="110" as="targetPoint" />
            <Array as="points">
              <mxPoint x="80" y="100" />
              <mxPoint x="80" y="110" />
              <mxPoint x="70" y="110" />
            </Array>
          </mxGeometry>
        </mxCell>
        <mxCell id="whS2_qXfrG-GNI4Fqoqk-54" value="DisplayError" style="text;html=1;align=center;verticalAlign=middle;whiteSpace=wrap;rounded=0;" parent="whS2_qXfrG-GNI4Fqoqk-20" vertex="1">
          <mxGeometry x="70" y="80" width="100" height="30" as="geometry" />
        </mxCell>
        <mxCell id="whS2_qXfrG-GNI4Fqoqk-55" value="return(Plot)" style="html=1;verticalAlign=bottom;endArrow=open;dashed=1;endSize=8;curved=0;rounded=0;" parent="whS2_qXfrG-GNI4Fqoqk-20" edge="1">
          <mxGeometry relative="1" as="geometry">
            <mxPoint x="745" y="150" as="sourcePoint" />
            <mxPoint x="460" y="150" as="targetPoint" />
            <Array as="points">
              <mxPoint x="690" y="150" />
            </Array>
          </mxGeometry>
        </mxCell>
        <mxCell id="whS2_qXfrG-GNI4Fqoqk-57" value="show(PlotInfo)" style="html=1;verticalAlign=bottom;endArrow=open;dashed=1;endSize=8;curved=0;rounded=0;" parent="whS2_qXfrG-GNI4Fqoqk-20" target="whS2_qXfrG-GNI4Fqoqk-9" edge="1">
          <mxGeometry relative="1" as="geometry">
            <mxPoint x="455" y="160" as="sourcePoint" />
            <mxPoint x="170" y="160" as="targetPoint" />
            <Array as="points">
              <mxPoint x="400" y="160" />
            </Array>
          </mxGeometry>
        </mxCell>
        <mxCell id="whS2_qXfrG-GNI4Fqoqk-61" style="edgeStyle=orthogonalEdgeStyle;rounded=0;orthogonalLoop=1;jettySize=auto;html=1;curved=0;entryX=1;entryY=0;entryDx=0;entryDy=5;entryPerimeter=0;" parent="whS2_qXfrG-GNI4Fqoqk-20" edge="1">
          <mxGeometry relative="1" as="geometry">
            <mxPoint x="50" y="170" as="sourcePoint" />
            <mxPoint x="60" y="185" as="targetPoint" />
            <Array as="points">
              <mxPoint x="70" y="170" />
              <mxPoint x="70" y="185" />
            </Array>
          </mxGeometry>
        </mxCell>
        <mxCell id="whS2_qXfrG-GNI4Fqoqk-62" value="" style="html=1;verticalAlign=bottom;labelBackgroundColor=none;endArrow=block;endFill=1;dashed=1;rounded=0;" parent="whS2_qXfrG-GNI4Fqoqk-20" edge="1">
          <mxGeometry width="160" relative="1" as="geometry">
            <mxPoint x="60" y="190" as="sourcePoint" />
            <mxPoint x="50" y="200" as="targetPoint" />
            <Array as="points">
              <mxPoint x="80" y="190" />
              <mxPoint x="80" y="200" />
              <mxPoint x="70" y="200" />
            </Array>
          </mxGeometry>
        </mxCell>
        <mxCell id="whS2_qXfrG-GNI4Fqoqk-63" value="ready()" style="text;html=1;align=center;verticalAlign=middle;whiteSpace=wrap;rounded=0;" parent="whS2_qXfrG-GNI4Fqoqk-20" vertex="1">
          <mxGeometry x="50" y="170" width="100" height="30" as="geometry" />
        </mxCell>
        <mxCell id="whS2_qXfrG-GNI4Fqoqk-64" value="alt" style="shape=umlFrame;whiteSpace=wrap;html=1;pointerEvents=0;recursiveResize=0;container=1;collapsible=0;width=30;height=20;" parent="whS2_qXfrG-GNI4Fqoqk-20" vertex="1">
          <mxGeometry x="10" y="210" width="780" height="200" as="geometry" />
        </mxCell>
        <mxCell id="whS2_qXfrG-GNI4Fqoqk-66" value="[false]" style="text;html=1;align=center;verticalAlign=middle;whiteSpace=wrap;rounded=0;" parent="whS2_qXfrG-GNI4Fqoqk-64" vertex="1">
          <mxGeometry x="-30" y="80" width="100" height="30" as="geometry" />
        </mxCell>
        <mxCell id="whS2_qXfrG-GNI4Fqoqk-67" value="[true]" style="text;html=1;align=center;verticalAlign=middle;whiteSpace=wrap;rounded=0;" parent="whS2_qXfrG-GNI4Fqoqk-64" vertex="1">
          <mxGeometry x="-30" y="40" width="100" height="30" as="geometry" />
        </mxCell>
        <mxCell id="whS2_qXfrG-GNI4Fqoqk-68" value="" style="endArrow=classic;html=1;rounded=0;" parent="whS2_qXfrG-GNI4Fqoqk-64" edge="1">
          <mxGeometry width="50" height="50" relative="1" as="geometry">
            <mxPoint x="42.75" y="99.5" as="sourcePoint" />
            <mxPoint x="447.25" y="99.5" as="targetPoint" />
            <Array as="points">
              <mxPoint x="127.75" y="99.5" />
            </Array>
          </mxGeometry>
        </mxCell>
        <mxCell id="whS2_qXfrG-GNI4Fqoqk-69" value="fertilise()" style="text;html=1;align=center;verticalAlign=middle;whiteSpace=wrap;rounded=0;" parent="whS2_qXfrG-GNI4Fqoqk-64" vertex="1">
          <mxGeometry x="160" y="70" width="100" height="30" as="geometry" />
        </mxCell>
        <mxCell id="whS2_qXfrG-GNI4Fqoqk-70" value="message(&quot;Capture was successful&quot;)" style="html=1;verticalAlign=bottom;endArrow=open;dashed=1;endSize=8;curved=0;rounded=0;" parent="whS2_qXfrG-GNI4Fqoqk-64" target="whS2_qXfrG-GNI4Fqoqk-9" edge="1">
          <mxGeometry relative="1" as="geometry">
            <mxPoint x="445" y="150" as="sourcePoint" />
            <mxPoint x="160" y="150" as="targetPoint" />
            <Array as="points">
              <mxPoint x="390" y="150" />
            </Array>
          </mxGeometry>
        </mxCell>
        <mxCell id="whS2_qXfrG-GNI4Fqoqk-71" value="" style="html=1;points=[[0,0,0,0,5],[0,1,0,0,-5],[1,0,0,0,5],[1,1,0,0,-5]];perimeter=orthogonalPerimeter;outlineConnect=0;targetShapes=umlLifeline;portConstraint=eastwest;newEdgeStyle={&quot;curved&quot;:0,&quot;rounded&quot;:0};" parent="whS2_qXfrG-GNI4Fqoqk-64" vertex="1">
          <mxGeometry x="40" y="170" width="10" height="10" as="geometry" />
        </mxCell>
        <mxCell id="whS2_qXfrG-GNI4Fqoqk-72" style="edgeStyle=orthogonalEdgeStyle;rounded=0;orthogonalLoop=1;jettySize=auto;html=1;curved=0;entryX=1;entryY=0;entryDx=0;entryDy=5;entryPerimeter=0;" parent="whS2_qXfrG-GNI4Fqoqk-64" edge="1">
          <mxGeometry relative="1" as="geometry">
            <mxPoint x="40" y="155" as="sourcePoint" />
            <mxPoint x="50" y="170" as="targetPoint" />
            <Array as="points">
              <mxPoint x="60" y="155" />
              <mxPoint x="60" y="170" />
            </Array>
          </mxGeometry>
        </mxCell>
        <mxCell id="whS2_qXfrG-GNI4Fqoqk-73" value="" style="html=1;verticalAlign=bottom;labelBackgroundColor=none;endArrow=block;endFill=1;dashed=1;rounded=0;" parent="whS2_qXfrG-GNI4Fqoqk-64" edge="1">
          <mxGeometry width="160" relative="1" as="geometry">
            <mxPoint x="50" y="180" as="sourcePoint" />
            <mxPoint x="40" y="190" as="targetPoint" />
            <Array as="points">
              <mxPoint x="70" y="180" />
              <mxPoint x="70" y="190" />
              <mxPoint x="60" y="190" />
            </Array>
          </mxGeometry>
        </mxCell>
        <mxCell id="whS2_qXfrG-GNI4Fqoqk-74" value="DisplayMessage" style="text;html=1;align=center;verticalAlign=middle;whiteSpace=wrap;rounded=0;" parent="whS2_qXfrG-GNI4Fqoqk-64" vertex="1">
          <mxGeometry x="60" y="160" width="100" height="30" as="geometry" />
        </mxCell>
        <mxCell id="whS2_qXfrG-GNI4Fqoqk-75" value="" style="html=1;verticalAlign=bottom;labelBackgroundColor=none;endArrow=open;endFill=0;dashed=1;rounded=0;" parent="whS2_qXfrG-GNI4Fqoqk-64" target="whS2_qXfrG-GNI4Fqoqk-13" edge="1">
          <mxGeometry width="160" relative="1" as="geometry">
            <mxPoint x="450" y="110" as="sourcePoint" />
            <mxPoint x="610" y="110" as="targetPoint" />
          </mxGeometry>
        </mxCell>
        <mxCell id="whS2_qXfrG-GNI4Fqoqk-76" value="submit(NPK ratio)" style="text;html=1;align=center;verticalAlign=middle;whiteSpace=wrap;rounded=0;" parent="whS2_qXfrG-GNI4Fqoqk-64" vertex="1">
          <mxGeometry x="460" y="80" width="280" height="30" as="geometry" />
        </mxCell>
        <mxCell id="whS2_qXfrG-GNI4Fqoqk-77" value="success" style="html=1;verticalAlign=bottom;endArrow=open;dashed=1;endSize=8;curved=0;rounded=0;" parent="whS2_qXfrG-GNI4Fqoqk-64" edge="1">
          <mxGeometry relative="1" as="geometry">
            <mxPoint x="735" y="140" as="sourcePoint" />
            <mxPoint x="450" y="140" as="targetPoint" />
            <Array as="points">
              <mxPoint x="680" y="140" />
            </Array>
          </mxGeometry>
        </mxCell>
        <mxCell id="whS2_qXfrG-GNI4Fqoqk-65" value="" style="endArrow=none;dashed=1;html=1;rounded=0;exitX=0.002;exitY=0.384;exitDx=0;exitDy=0;exitPerimeter=0;entryX=1.002;entryY=0.39;entryDx=0;entryDy=0;entryPerimeter=0;" parent="whS2_qXfrG-GNI4Fqoqk-20" source="whS2_qXfrG-GNI4Fqoqk-64" target="whS2_qXfrG-GNI4Fqoqk-64" edge="1">
          <mxGeometry width="50" height="50" relative="1" as="geometry">
            <mxPoint y="272.20000000000005" as="sourcePoint" />
            <mxPoint x="499" y="279" as="targetPoint" />
          </mxGeometry>
        </mxCell>
        <mxCell id="whS2_qXfrG-GNI4Fqoqk-23" value="selectPlot(pId)" style="text;html=1;align=center;verticalAlign=middle;whiteSpace=wrap;rounded=0;" parent="whS2_qXfrG-GNI4Fqoqk-2" vertex="1">
          <mxGeometry x="360" y="130" width="100" height="30" as="geometry" />
        </mxCell>
        <mxCell id="whS2_qXfrG-GNI4Fqoqk-21" value="" style="endArrow=classic;html=1;rounded=0;" parent="whS2_qXfrG-GNI4Fqoqk-2" edge="1">
          <mxGeometry width="50" height="50" relative="1" as="geometry">
            <mxPoint x="240" y="160" as="sourcePoint" />
            <mxPoint x="644.5" y="160" as="targetPoint" />
            <Array as="points">
              <mxPoint x="325" y="160" />
            </Array>
          </mxGeometry>
        </mxCell>
        <mxCell id="whS2_qXfrG-GNI4Fqoqk-28" value="getPlot(pId)" style="text;html=1;align=center;verticalAlign=middle;whiteSpace=wrap;rounded=0;" parent="whS2_qXfrG-GNI4Fqoqk-2" vertex="1">
          <mxGeometry x="740" y="140" width="100" height="30" as="geometry" />
        </mxCell>
        <mxCell id="whS2_qXfrG-GNI4Fqoqk-27" value="" style="endArrow=classic;html=1;rounded=0;" parent="whS2_qXfrG-GNI4Fqoqk-2" edge="1">
          <mxGeometry width="50" height="50" relative="1" as="geometry">
            <mxPoint x="640" y="170" as="sourcePoint" />
            <mxPoint x="930" y="170" as="targetPoint" />
            <Array as="points" />
          </mxGeometry>
        </mxCell>
        <mxCell id="whS2_qXfrG-GNI4Fqoqk-35" value="exists()" style="text;html=1;align=center;verticalAlign=middle;whiteSpace=wrap;rounded=0;" parent="whS2_qXfrG-GNI4Fqoqk-2" vertex="1">
          <mxGeometry x="930" y="170" width="100" height="30" as="geometry" />
        </mxCell>
        <mxCell id="whS2_qXfrG-GNI4Fqoqk-47" style="edgeStyle=orthogonalEdgeStyle;rounded=0;orthogonalLoop=1;jettySize=auto;html=1;curved=0;entryX=1;entryY=0;entryDx=0;entryDy=5;entryPerimeter=0;" parent="whS2_qXfrG-GNI4Fqoqk-2" edge="1">
          <mxGeometry relative="1" as="geometry">
            <mxPoint x="930" y="170" as="sourcePoint" />
            <mxPoint x="940" y="185" as="targetPoint" />
            <Array as="points">
              <mxPoint x="950" y="170" />
              <mxPoint x="950" y="185" />
            </Array>
          </mxGeometry>
        </mxCell>
        <mxCell id="whS2_qXfrG-GNI4Fqoqk-51" value="" style="html=1;verticalAlign=bottom;labelBackgroundColor=none;endArrow=block;endFill=1;dashed=1;rounded=0;" parent="whS2_qXfrG-GNI4Fqoqk-2" edge="1">
          <mxGeometry width="160" relative="1" as="geometry">
            <mxPoint x="940" y="190" as="sourcePoint" />
            <mxPoint x="930" y="200" as="targetPoint" />
            <Array as="points">
              <mxPoint x="960" y="190" />
              <mxPoint x="960" y="200" />
              <mxPoint x="950" y="200" />
            </Array>
          </mxGeometry>
        </mxCell>
        <mxCell id="2kn59-IRRM6XUF5Lcga7-11" value="input NPK ratio used" style="text;html=1;align=center;verticalAlign=middle;whiteSpace=wrap;rounded=0;" vertex="1" parent="whS2_qXfrG-GNI4Fqoqk-2">
          <mxGeometry x="50" y="430" width="130" height="30" as="geometry" />
        </mxCell>
        <mxCell id="2kn59-IRRM6XUF5Lcga7-12" value="" style="endArrow=classic;html=1;rounded=0;" edge="1" parent="whS2_qXfrG-GNI4Fqoqk-2">
          <mxGeometry width="50" height="50" relative="1" as="geometry">
            <mxPoint x="42.5" y="460" as="sourcePoint" />
            <mxPoint x="227.5" y="460" as="targetPoint" />
            <Array as="points">
              <mxPoint x="127.5" y="460" />
            </Array>
          </mxGeometry>
        </mxCell>
        <mxCell id="whS2_qXfrG-GNI4Fqoqk-3" value="sd Capture Crop Growth" style="shape=umlFrame;whiteSpace=wrap;html=1;pointerEvents=0;recursiveResize=0;container=1;collapsible=0;width=160;" parent="1" vertex="1">
          <mxGeometry x="-270" y="1920" width="1170" height="1030" as="geometry" />
        </mxCell>
        <mxCell id="whS2_qXfrG-GNI4Fqoqk-78" value="&lt;div&gt;&lt;br&gt;&lt;/div&gt;&lt;div&gt;&lt;br&gt;&lt;/div&gt;&lt;div&gt;&lt;br&gt;&lt;/div&gt;&lt;div&gt;&lt;br&gt;&lt;/div&gt;&lt;div&gt;&lt;br&gt;&lt;/div&gt;User" style="shape=umlLifeline;perimeter=lifelinePerimeter;whiteSpace=wrap;html=1;container=1;dropTarget=0;collapsible=0;recursiveResize=0;outlineConnect=0;portConstraint=eastwest;newEdgeStyle={&quot;curved&quot;:0,&quot;rounded&quot;:0};participant=umlActor;" parent="whS2_qXfrG-GNI4Fqoqk-3" vertex="1">
          <mxGeometry x="150" y="40" width="20" height="980" as="geometry" />
        </mxCell>
        <mxCell id="whS2_qXfrG-GNI4Fqoqk-84" value="" style="html=1;points=[[0,0,0,0,5],[0,1,0,0,-5],[1,0,0,0,5],[1,1,0,0,-5]];perimeter=orthogonalPerimeter;outlineConnect=0;targetShapes=umlLifeline;portConstraint=eastwest;newEdgeStyle={&quot;curved&quot;:0,&quot;rounded&quot;:0};" parent="whS2_qXfrG-GNI4Fqoqk-78" vertex="1">
          <mxGeometry x="5" y="80" width="10" height="890" as="geometry" />
        </mxCell>
        <mxCell id="2kn59-IRRM6XUF5Lcga7-103" value="" style="html=1;points=[[0,0,0,0,5],[0,1,0,0,-5],[1,0,0,0,5],[1,1,0,0,-5]];perimeter=orthogonalPerimeter;outlineConnect=0;targetShapes=umlLifeline;portConstraint=eastwest;newEdgeStyle={&quot;curved&quot;:0,&quot;rounded&quot;:0};" vertex="1" parent="whS2_qXfrG-GNI4Fqoqk-78">
          <mxGeometry x="10" y="275" width="10" height="25" as="geometry" />
        </mxCell>
        <mxCell id="2kn59-IRRM6XUF5Lcga7-104" style="edgeStyle=orthogonalEdgeStyle;rounded=0;orthogonalLoop=1;jettySize=auto;html=1;curved=0;entryX=1;entryY=0;entryDx=0;entryDy=5;entryPerimeter=0;" edge="1" parent="whS2_qXfrG-GNI4Fqoqk-78" source="whS2_qXfrG-GNI4Fqoqk-78" target="2kn59-IRRM6XUF5Lcga7-103">
          <mxGeometry relative="1" as="geometry">
            <mxPoint x="50" y="310" as="sourcePoint" />
            <mxPoint x="50" y="288" as="targetPoint" />
            <Array as="points">
              <mxPoint x="40" y="260" />
              <mxPoint x="40" y="280" />
            </Array>
          </mxGeometry>
        </mxCell>
        <mxCell id="2kn59-IRRM6XUF5Lcga7-106" value="" style="html=1;verticalAlign=bottom;labelBackgroundColor=none;endArrow=block;endFill=1;dashed=1;rounded=0;" edge="1" parent="whS2_qXfrG-GNI4Fqoqk-78" source="2kn59-IRRM6XUF5Lcga7-103" target="whS2_qXfrG-GNI4Fqoqk-78">
          <mxGeometry width="160" relative="1" as="geometry">
            <mxPoint x="25" y="290" as="sourcePoint" />
            <mxPoint x="20" y="310" as="targetPoint" />
            <Array as="points">
              <mxPoint x="45" y="290" />
              <mxPoint x="45" y="310" />
            </Array>
          </mxGeometry>
        </mxCell>
        <mxCell id="2kn59-IRRM6XUF5Lcga7-116" value="" style="html=1;points=[[0,0,0,0,5],[0,1,0,0,-5],[1,0,0,0,5],[1,1,0,0,-5]];perimeter=orthogonalPerimeter;outlineConnect=0;targetShapes=umlLifeline;portConstraint=eastwest;newEdgeStyle={&quot;curved&quot;:0,&quot;rounded&quot;:0};" vertex="1" parent="whS2_qXfrG-GNI4Fqoqk-78">
          <mxGeometry x="10" y="610" width="10" height="25" as="geometry" />
        </mxCell>
        <mxCell id="whS2_qXfrG-GNI4Fqoqk-79" value=":UI" style="shape=umlLifeline;perimeter=lifelinePerimeter;whiteSpace=wrap;html=1;container=1;dropTarget=0;collapsible=0;recursiveResize=0;outlineConnect=0;portConstraint=eastwest;newEdgeStyle={&quot;curved&quot;:0,&quot;rounded&quot;:0};" parent="whS2_qXfrG-GNI4Fqoqk-3" vertex="1">
          <mxGeometry x="370" y="50" width="100" height="980" as="geometry" />
        </mxCell>
        <mxCell id="whS2_qXfrG-GNI4Fqoqk-85" value="" style="html=1;points=[[0,0,0,0,5],[0,1,0,0,-5],[1,0,0,0,5],[1,1,0,0,-5]];perimeter=orthogonalPerimeter;outlineConnect=0;targetShapes=umlLifeline;portConstraint=eastwest;newEdgeStyle={&quot;curved&quot;:0,&quot;rounded&quot;:0};" parent="whS2_qXfrG-GNI4Fqoqk-79" vertex="1">
          <mxGeometry x="45" y="90" width="10" height="870" as="geometry" />
        </mxCell>
        <mxCell id="2kn59-IRRM6XUF5Lcga7-143" value="" style="html=1;points=[[0,0,0,0,5],[0,1,0,0,-5],[1,0,0,0,5],[1,1,0,0,-5]];perimeter=orthogonalPerimeter;outlineConnect=0;targetShapes=umlLifeline;portConstraint=eastwest;newEdgeStyle={&quot;curved&quot;:0,&quot;rounded&quot;:0};" vertex="1" parent="whS2_qXfrG-GNI4Fqoqk-79">
          <mxGeometry x="50" y="550" width="10" height="20" as="geometry" />
        </mxCell>
        <mxCell id="whS2_qXfrG-GNI4Fqoqk-80" value=":API" style="shape=umlLifeline;perimeter=lifelinePerimeter;whiteSpace=wrap;html=1;container=1;dropTarget=0;collapsible=0;recursiveResize=0;outlineConnect=0;portConstraint=eastwest;newEdgeStyle={&quot;curved&quot;:0,&quot;rounded&quot;:0};" parent="whS2_qXfrG-GNI4Fqoqk-3" vertex="1">
          <mxGeometry x="700" y="40" width="100" height="980" as="geometry" />
        </mxCell>
        <mxCell id="whS2_qXfrG-GNI4Fqoqk-86" value="" style="html=1;points=[[0,0,0,0,5],[0,1,0,0,-5],[1,0,0,0,5],[1,1,0,0,-5]];perimeter=orthogonalPerimeter;outlineConnect=0;targetShapes=umlLifeline;portConstraint=eastwest;newEdgeStyle={&quot;curved&quot;:0,&quot;rounded&quot;:0};" parent="whS2_qXfrG-GNI4Fqoqk-80" vertex="1">
          <mxGeometry x="45" y="140" width="10" height="820" as="geometry" />
        </mxCell>
        <mxCell id="whS2_qXfrG-GNI4Fqoqk-81" value=":Database" style="shape=umlLifeline;perimeter=lifelinePerimeter;whiteSpace=wrap;html=1;container=1;dropTarget=0;collapsible=0;recursiveResize=0;outlineConnect=0;portConstraint=eastwest;newEdgeStyle={&quot;curved&quot;:0,&quot;rounded&quot;:0};" parent="whS2_qXfrG-GNI4Fqoqk-3" vertex="1">
          <mxGeometry x="1010" y="40" width="100" height="980" as="geometry" />
        </mxCell>
        <mxCell id="whS2_qXfrG-GNI4Fqoqk-83" value="" style="html=1;points=[[0,0,0,0,5],[0,1,0,0,-5],[1,0,0,0,5],[1,1,0,0,-5]];perimeter=orthogonalPerimeter;outlineConnect=0;targetShapes=umlLifeline;portConstraint=eastwest;newEdgeStyle={&quot;curved&quot;:0,&quot;rounded&quot;:0};" parent="whS2_qXfrG-GNI4Fqoqk-81" vertex="1">
          <mxGeometry x="90" width="10" height="40" as="geometry" />
        </mxCell>
        <mxCell id="whS2_qXfrG-GNI4Fqoqk-87" value="" style="html=1;points=[[0,0,0,0,5],[0,1,0,0,-5],[1,0,0,0,5],[1,1,0,0,-5]];perimeter=orthogonalPerimeter;outlineConnect=0;targetShapes=umlLifeline;portConstraint=eastwest;newEdgeStyle={&quot;curved&quot;:0,&quot;rounded&quot;:0};" parent="whS2_qXfrG-GNI4Fqoqk-81" vertex="1">
          <mxGeometry x="45" y="150" width="10" height="740" as="geometry" />
        </mxCell>
        <mxCell id="whS2_qXfrG-GNI4Fqoqk-82" value="" style="html=1;points=[[0,0,0,0,5],[0,1,0,0,-5],[1,0,0,0,5],[1,1,0,0,-5]];perimeter=orthogonalPerimeter;outlineConnect=0;targetShapes=umlLifeline;portConstraint=eastwest;newEdgeStyle={&quot;curved&quot;:0,&quot;rounded&quot;:0};" parent="whS2_qXfrG-GNI4Fqoqk-81" vertex="1">
          <mxGeometry width="10" height="40" as="geometry" />
        </mxCell>
        <mxCell id="2kn59-IRRM6XUF5Lcga7-79" value="loop readyHarv = false" style="shape=umlFrame;whiteSpace=wrap;html=1;pointerEvents=0;recursiveResize=0;container=1;collapsible=0;width=135;height=30;" vertex="1" parent="whS2_qXfrG-GNI4Fqoqk-3">
          <mxGeometry x="10" y="150" width="1090" height="860" as="geometry" />
        </mxCell>
        <mxCell id="2kn59-IRRM6XUF5Lcga7-82" value="" style="endArrow=classic;html=1;rounded=0;" edge="1" parent="2kn59-IRRM6XUF5Lcga7-79" target="whS2_qXfrG-GNI4Fqoqk-86">
          <mxGeometry width="50" height="50" relative="1" as="geometry">
            <mxPoint x="420" y="30" as="sourcePoint" />
            <mxPoint x="465" y="30" as="targetPoint" />
          </mxGeometry>
        </mxCell>
        <mxCell id="2kn59-IRRM6XUF5Lcga7-83" value="" style="endArrow=classic;html=1;rounded=0;" edge="1" parent="2kn59-IRRM6XUF5Lcga7-79" target="whS2_qXfrG-GNI4Fqoqk-81">
          <mxGeometry width="50" height="50" relative="1" as="geometry">
            <mxPoint x="750" y="40" as="sourcePoint" />
            <mxPoint x="890" y="40" as="targetPoint" />
          </mxGeometry>
        </mxCell>
        <mxCell id="2kn59-IRRM6XUF5Lcga7-84" value="selectPlant(pId)" style="text;html=1;align=center;verticalAlign=middle;whiteSpace=wrap;rounded=0;" vertex="1" parent="2kn59-IRRM6XUF5Lcga7-79">
          <mxGeometry x="490" width="150" height="30" as="geometry" />
        </mxCell>
        <mxCell id="2kn59-IRRM6XUF5Lcga7-90" value="return(PlantInfo)" style="text;html=1;align=center;verticalAlign=middle;whiteSpace=wrap;rounded=0;" vertex="1" parent="2kn59-IRRM6XUF5Lcga7-79">
          <mxGeometry x="810" y="60" width="150" height="30" as="geometry" />
        </mxCell>
        <mxCell id="2kn59-IRRM6XUF5Lcga7-92" value="return(PlantInfo)" style="text;html=1;align=center;verticalAlign=middle;whiteSpace=wrap;rounded=0;" vertex="1" parent="2kn59-IRRM6XUF5Lcga7-79">
          <mxGeometry x="490" y="100" width="150" height="30" as="geometry" />
        </mxCell>
        <mxCell id="2kn59-IRRM6XUF5Lcga7-96" value="" style="html=1;points=[[0,0,0,0,5],[0,1,0,0,-5],[1,0,0,0,5],[1,1,0,0,-5]];perimeter=orthogonalPerimeter;outlineConnect=0;targetShapes=umlLifeline;portConstraint=eastwest;newEdgeStyle={&quot;curved&quot;:0,&quot;rounded&quot;:0};" vertex="1" parent="2kn59-IRRM6XUF5Lcga7-79">
          <mxGeometry x="410" y="50" width="10" height="20" as="geometry" />
        </mxCell>
        <mxCell id="2kn59-IRRM6XUF5Lcga7-97" style="edgeStyle=orthogonalEdgeStyle;rounded=0;orthogonalLoop=1;jettySize=auto;html=1;curved=0;" edge="1" parent="2kn59-IRRM6XUF5Lcga7-79">
          <mxGeometry relative="1" as="geometry">
            <mxPoint x="410" y="45" as="sourcePoint" />
            <mxPoint x="420" y="60" as="targetPoint" />
            <Array as="points">
              <mxPoint x="440" y="45" />
              <mxPoint x="440" y="60" />
            </Array>
          </mxGeometry>
        </mxCell>
        <mxCell id="2kn59-IRRM6XUF5Lcga7-99" value="DisplayMessage" style="text;html=1;align=center;verticalAlign=middle;whiteSpace=wrap;rounded=0;" vertex="1" parent="2kn59-IRRM6XUF5Lcga7-79">
          <mxGeometry x="420" y="45" width="150" height="30" as="geometry" />
        </mxCell>
        <mxCell id="2kn59-IRRM6XUF5Lcga7-89" value="" style="html=1;verticalAlign=bottom;labelBackgroundColor=none;endArrow=block;endFill=1;dashed=1;rounded=0;" edge="1" parent="2kn59-IRRM6XUF5Lcga7-79" source="whS2_qXfrG-GNI4Fqoqk-87">
          <mxGeometry width="160" relative="1" as="geometry">
            <mxPoint x="880" y="90" as="sourcePoint" />
            <mxPoint x="750" y="90" as="targetPoint" />
          </mxGeometry>
        </mxCell>
        <mxCell id="2kn59-IRRM6XUF5Lcga7-117" value="" style="html=1;verticalAlign=bottom;labelBackgroundColor=none;endArrow=block;endFill=1;dashed=1;rounded=0;" edge="1" parent="2kn59-IRRM6XUF5Lcga7-79">
          <mxGeometry width="160" relative="1" as="geometry">
            <mxPoint x="160" y="520" as="sourcePoint" />
            <mxPoint x="150" y="540" as="targetPoint" />
            <Array as="points">
              <mxPoint x="185" y="520" />
              <mxPoint x="185" y="540" />
            </Array>
          </mxGeometry>
        </mxCell>
        <mxCell id="2kn59-IRRM6XUF5Lcga7-118" style="edgeStyle=orthogonalEdgeStyle;rounded=0;orthogonalLoop=1;jettySize=auto;html=1;curved=0;entryX=1;entryY=0;entryDx=0;entryDy=5;entryPerimeter=0;" edge="1" parent="2kn59-IRRM6XUF5Lcga7-79">
          <mxGeometry relative="1" as="geometry">
            <mxPoint x="150" y="500" as="sourcePoint" />
            <mxPoint x="160" y="515" as="targetPoint" />
            <Array as="points">
              <mxPoint x="180" y="500" />
              <mxPoint x="180" y="515" />
            </Array>
          </mxGeometry>
        </mxCell>
        <mxCell id="2kn59-IRRM6XUF5Lcga7-119" value="foundWeeds()" style="text;html=1;align=center;verticalAlign=middle;whiteSpace=wrap;rounded=0;" vertex="1" parent="2kn59-IRRM6XUF5Lcga7-79">
          <mxGeometry x="150" y="500" width="150" height="30" as="geometry" />
        </mxCell>
        <mxCell id="2kn59-IRRM6XUF5Lcga7-107" value="foundPest()" style="text;html=1;align=center;verticalAlign=middle;whiteSpace=wrap;rounded=0;" vertex="1" parent="2kn59-IRRM6XUF5Lcga7-79">
          <mxGeometry x="140" y="150" width="150" height="30" as="geometry" />
        </mxCell>
        <mxCell id="2kn59-IRRM6XUF5Lcga7-86" value="getPlant(pId)" style="text;html=1;align=center;verticalAlign=middle;whiteSpace=wrap;rounded=0;" vertex="1" parent="2kn59-IRRM6XUF5Lcga7-79">
          <mxGeometry x="810" y="10" width="150" height="30" as="geometry" />
        </mxCell>
        <mxCell id="2kn59-IRRM6XUF5Lcga7-123" value="" style="html=1;verticalAlign=bottom;labelBackgroundColor=none;endArrow=block;endFill=1;dashed=1;rounded=0;" edge="1" parent="2kn59-IRRM6XUF5Lcga7-79">
          <mxGeometry width="160" relative="1" as="geometry">
            <mxPoint x="420" y="65" as="sourcePoint" />
            <mxPoint x="410" y="85" as="targetPoint" />
            <Array as="points">
              <mxPoint x="445" y="65" />
              <mxPoint x="445" y="85" />
            </Array>
          </mxGeometry>
        </mxCell>
        <mxCell id="2kn59-IRRM6XUF5Lcga7-80" value="" style="endArrow=classic;html=1;rounded=0;" edge="1" parent="whS2_qXfrG-GNI4Fqoqk-3" target="whS2_qXfrG-GNI4Fqoqk-79">
          <mxGeometry width="50" height="50" relative="1" as="geometry">
            <mxPoint x="170" y="130" as="sourcePoint" />
            <mxPoint x="110" y="80" as="targetPoint" />
          </mxGeometry>
        </mxCell>
        <mxCell id="2kn59-IRRM6XUF5Lcga7-81" value="click Mornitor CropGrowth" style="text;html=1;align=center;verticalAlign=middle;whiteSpace=wrap;rounded=0;" vertex="1" parent="whS2_qXfrG-GNI4Fqoqk-3">
          <mxGeometry x="200" y="100" width="150" height="30" as="geometry" />
        </mxCell>
        <mxCell id="2kn59-IRRM6XUF5Lcga7-91" value="" style="html=1;verticalAlign=bottom;labelBackgroundColor=none;endArrow=block;endFill=1;dashed=1;rounded=0;exitX=0.5;exitY=0.13;exitDx=0;exitDy=0;exitPerimeter=0;" edge="1" parent="whS2_qXfrG-GNI4Fqoqk-3" source="whS2_qXfrG-GNI4Fqoqk-86" target="whS2_qXfrG-GNI4Fqoqk-85">
          <mxGeometry width="160" relative="1" as="geometry">
            <mxPoint x="605" y="240" as="sourcePoint" />
            <mxPoint x="370" y="240" as="targetPoint" />
          </mxGeometry>
        </mxCell>
        <mxCell id="2kn59-IRRM6XUF5Lcga7-108" value="alt" style="shape=umlFrame;whiteSpace=wrap;html=1;pointerEvents=0;recursiveResize=0;container=1;collapsible=0;width=30;height=20;" vertex="1" parent="whS2_qXfrG-GNI4Fqoqk-3">
          <mxGeometry x="10" y="380" width="1070" height="260" as="geometry" />
        </mxCell>
        <mxCell id="2kn59-IRRM6XUF5Lcga7-109" value="" style="endArrow=none;dashed=1;html=1;rounded=0;entryX=1.002;entryY=0.236;entryDx=0;entryDy=0;entryPerimeter=0;" edge="1" parent="2kn59-IRRM6XUF5Lcga7-108" target="2kn59-IRRM6XUF5Lcga7-108">
          <mxGeometry width="50" height="50" relative="1" as="geometry">
            <mxPoint y="51.98" as="sourcePoint" />
            <mxPoint x="924.4200000000001" y="49.99999999999998" as="targetPoint" />
          </mxGeometry>
        </mxCell>
        <mxCell id="2kn59-IRRM6XUF5Lcga7-112" value="[false]" style="text;html=1;align=center;verticalAlign=middle;whiteSpace=wrap;rounded=0;" vertex="1" parent="2kn59-IRRM6XUF5Lcga7-108">
          <mxGeometry x="-60" y="20" width="150" height="30" as="geometry" />
        </mxCell>
        <mxCell id="2kn59-IRRM6XUF5Lcga7-114" value="[true]&lt;span style=&quot;color: rgba(0, 0, 0, 0); font-family: monospace; font-size: 0px; text-align: start; text-wrap-mode: nowrap;&quot;&gt;%3CmxGraphModel%3E%3Croot%3E%3CmxCell%20id%3D%220%22%2F%3E%3CmxCell%20id%3D%221%22%20parent%3D%220%22%2F%3E%3CmxCell%20id%3D%222%22%20value%3D%22%5Bfalse%5D%22%20style%3D%22text%3Bhtml%3D1%3Balign%3Dcenter%3BverticalAlign%3Dmiddle%3BwhiteSpace%3Dwrap%3Brounded%3D0%3B%22%20vertex%3D%221%22%20parent%3D%221%22%3E%3CmxGeometry%20x%3D%22-150%22%20y%3D%222320%22%20width%3D%22150%22%20height%3D%2230%22%20as%3D%22geometry%22%2F%3E%3C%2FmxCell%3E%3C%2Froot%3E%3C%2FmxGraphModel%3E&lt;/span&gt;" style="text;html=1;align=center;verticalAlign=middle;whiteSpace=wrap;rounded=0;" vertex="1" parent="2kn59-IRRM6XUF5Lcga7-108">
          <mxGeometry x="-60" y="110" width="150" height="30" as="geometry" />
        </mxCell>
        <mxCell id="2kn59-IRRM6XUF5Lcga7-126" value="record Pest mornitoring" style="text;html=1;align=center;verticalAlign=middle;whiteSpace=wrap;rounded=0;" vertex="1" parent="2kn59-IRRM6XUF5Lcga7-108">
          <mxGeometry x="170" y="60" width="190" height="30" as="geometry" />
        </mxCell>
        <mxCell id="2kn59-IRRM6XUF5Lcga7-127" value="" style="endArrow=classic;html=1;rounded=0;exitX=1.5;exitY=0.393;exitDx=0;exitDy=0;exitPerimeter=0;" edge="1" parent="2kn59-IRRM6XUF5Lcga7-108" target="whS2_qXfrG-GNI4Fqoqk-86">
          <mxGeometry width="50" height="50" relative="1" as="geometry">
            <mxPoint x="412.5" y="100" as="sourcePoint" />
            <mxPoint x="657.5" y="100" as="targetPoint" />
            <Array as="points">
              <mxPoint x="452.5" y="100" />
            </Array>
          </mxGeometry>
        </mxCell>
        <mxCell id="2kn59-IRRM6XUF5Lcga7-128" value="recordPest(pId, date, pest,usedP)" style="text;html=1;align=center;verticalAlign=middle;whiteSpace=wrap;rounded=0;" vertex="1" parent="2kn59-IRRM6XUF5Lcga7-108">
          <mxGeometry x="460" y="70" width="190" height="30" as="geometry" />
        </mxCell>
        <mxCell id="2kn59-IRRM6XUF5Lcga7-131" value="" style="html=1;verticalAlign=bottom;labelBackgroundColor=none;endArrow=open;endFill=0;dashed=1;rounded=0;exitX=1.5;exitY=0.377;exitDx=0;exitDy=0;exitPerimeter=0;" edge="1" parent="2kn59-IRRM6XUF5Lcga7-108" source="whS2_qXfrG-GNI4Fqoqk-86">
          <mxGeometry width="160" relative="1" as="geometry">
            <mxPoint x="760" y="109" as="sourcePoint" />
            <mxPoint x="920" y="109" as="targetPoint" />
          </mxGeometry>
        </mxCell>
        <mxCell id="2kn59-IRRM6XUF5Lcga7-133" value=":PlantDay" style="shape=umlLifeline;perimeter=lifelinePerimeter;whiteSpace=wrap;html=1;container=1;dropTarget=0;collapsible=0;recursiveResize=0;outlineConnect=0;portConstraint=eastwest;newEdgeStyle={&quot;curved&quot;:0,&quot;rounded&quot;:0};" vertex="1" parent="2kn59-IRRM6XUF5Lcga7-108">
          <mxGeometry x="920" y="90" width="100" height="130" as="geometry" />
        </mxCell>
        <mxCell id="2kn59-IRRM6XUF5Lcga7-134" value="addChange(pId,date,pest, usedP)" style="text;html=1;align=center;verticalAlign=middle;whiteSpace=wrap;rounded=0;" vertex="1" parent="2kn59-IRRM6XUF5Lcga7-108">
          <mxGeometry x="750" y="80" width="150" height="30" as="geometry" />
        </mxCell>
        <mxCell id="2kn59-IRRM6XUF5Lcga7-138" value="success" style="text;html=1;align=center;verticalAlign=middle;whiteSpace=wrap;rounded=0;" vertex="1" parent="2kn59-IRRM6XUF5Lcga7-108">
          <mxGeometry x="810" y="150" width="150" height="30" as="geometry" />
        </mxCell>
        <mxCell id="2kn59-IRRM6XUF5Lcga7-137" value="" style="html=1;verticalAlign=bottom;labelBackgroundColor=none;endArrow=block;endFill=1;dashed=1;rounded=0;" edge="1" parent="2kn59-IRRM6XUF5Lcga7-108" source="whS2_qXfrG-GNI4Fqoqk-87" target="whS2_qXfrG-GNI4Fqoqk-86">
          <mxGeometry width="160" relative="1" as="geometry">
            <mxPoint x="960" y="180" as="sourcePoint" />
            <mxPoint x="800" y="180" as="targetPoint" />
          </mxGeometry>
        </mxCell>
        <mxCell id="2kn59-IRRM6XUF5Lcga7-140" value="" style="html=1;verticalAlign=bottom;labelBackgroundColor=none;endArrow=block;endFill=1;dashed=1;rounded=0;" edge="1" parent="2kn59-IRRM6XUF5Lcga7-108" target="whS2_qXfrG-GNI4Fqoqk-85">
          <mxGeometry width="160" relative="1" as="geometry">
            <mxPoint x="740" y="190" as="sourcePoint" />
            <mxPoint x="440" y="190" as="targetPoint" />
          </mxGeometry>
        </mxCell>
        <mxCell id="2kn59-IRRM6XUF5Lcga7-141" value="message(&quot;Done, did you check for weeds?&quot;)" style="text;html=1;align=center;verticalAlign=middle;whiteSpace=wrap;rounded=0;" vertex="1" parent="2kn59-IRRM6XUF5Lcga7-108">
          <mxGeometry x="440" y="160" width="250" height="30" as="geometry" />
        </mxCell>
        <mxCell id="2kn59-IRRM6XUF5Lcga7-142" value="" style="html=1;verticalAlign=bottom;labelBackgroundColor=none;endArrow=block;endFill=1;dashed=1;rounded=0;" edge="1" parent="2kn59-IRRM6XUF5Lcga7-108">
          <mxGeometry width="160" relative="1" as="geometry">
            <mxPoint x="420" y="230" as="sourcePoint" />
            <mxPoint x="410" y="250" as="targetPoint" />
            <Array as="points">
              <mxPoint x="445" y="230" />
              <mxPoint x="445" y="250" />
            </Array>
          </mxGeometry>
        </mxCell>
        <mxCell id="2kn59-IRRM6XUF5Lcga7-145" style="edgeStyle=orthogonalEdgeStyle;rounded=0;orthogonalLoop=1;jettySize=auto;html=1;curved=0;entryX=1;entryY=1;entryDx=0;entryDy=-5;entryPerimeter=0;" edge="1" parent="2kn59-IRRM6XUF5Lcga7-108">
          <mxGeometry relative="1" as="geometry">
            <mxPoint x="410" y="210" as="sourcePoint" />
            <mxPoint x="415" y="225" as="targetPoint" />
            <Array as="points">
              <mxPoint x="410" y="210" />
              <mxPoint x="430" y="210" />
              <mxPoint x="430" y="225" />
            </Array>
          </mxGeometry>
        </mxCell>
        <mxCell id="2kn59-IRRM6XUF5Lcga7-157" value="DisplayMessage" style="text;html=1;align=center;verticalAlign=middle;whiteSpace=wrap;rounded=0;" vertex="1" parent="2kn59-IRRM6XUF5Lcga7-108">
          <mxGeometry x="420" y="210" width="150" height="30" as="geometry" />
        </mxCell>
        <mxCell id="2kn59-IRRM6XUF5Lcga7-166" value="add(PlantDate)" style="text;html=1;align=center;verticalAlign=middle;whiteSpace=wrap;rounded=0;" vertex="1" parent="2kn59-IRRM6XUF5Lcga7-108">
          <mxGeometry x="760" y="120" width="150" height="30" as="geometry" />
        </mxCell>
        <mxCell id="2kn59-IRRM6XUF5Lcga7-110" value="alt" style="shape=umlFrame;whiteSpace=wrap;html=1;pointerEvents=0;recursiveResize=0;container=1;collapsible=0;width=30;height=20;" vertex="1" parent="whS2_qXfrG-GNI4Fqoqk-3">
          <mxGeometry x="10" y="700" width="1070" height="290" as="geometry" />
        </mxCell>
        <mxCell id="2kn59-IRRM6XUF5Lcga7-111" value="" style="endArrow=none;dashed=1;html=1;rounded=0;entryX=1.004;entryY=0.223;entryDx=0;entryDy=0;entryPerimeter=0;" edge="1" parent="2kn59-IRRM6XUF5Lcga7-110" target="2kn59-IRRM6XUF5Lcga7-110">
          <mxGeometry width="50" height="50" relative="1" as="geometry">
            <mxPoint y="71.97999999999999" as="sourcePoint" />
            <mxPoint x="924.4200000000001" y="69.99999999999997" as="targetPoint" />
          </mxGeometry>
        </mxCell>
        <mxCell id="2kn59-IRRM6XUF5Lcga7-113" value="[false]" style="text;html=1;align=center;verticalAlign=middle;whiteSpace=wrap;rounded=0;" vertex="1" parent="2kn59-IRRM6XUF5Lcga7-110">
          <mxGeometry x="-60" y="20" width="150" height="30" as="geometry" />
        </mxCell>
        <mxCell id="2kn59-IRRM6XUF5Lcga7-115" value="[true]&lt;span style=&quot;color: rgba(0, 0, 0, 0); font-family: monospace; font-size: 0px; text-align: start; text-wrap-mode: nowrap;&quot;&gt;%3CmxGraphModel%3E%3Croot%3E%3CmxCell%20id%3D%220%22%2F%3E%3CmxCell%20id%3D%221%22%20parent%3D%220%22%2F%3E%3CmxCell%20id%3D%222%22%20value%3D%22%5Bfalse%5D%22%20style%3D%22text%3Bhtml%3D1%3Balign%3Dcenter%3BverticalAlign%3Dmiddle%3BwhiteSpace%3Dwrap%3Brounded%3D0%3B%22%20vertex%3D%221%22%20parent%3D%221%22%3E%3CmxGeometry%20x%3D%22-150%22%20y%3D%222320%22%20width%3D%22150%22%20height%3D%2230%22%20as%3D%22geometry%22%2F%3E%3C%2FmxCell%3E%3C%2Froot%3E%3C%2FmxGraphModel%3E&lt;/span&gt;" style="text;html=1;align=center;verticalAlign=middle;whiteSpace=wrap;rounded=0;" vertex="1" parent="2kn59-IRRM6XUF5Lcga7-110">
          <mxGeometry x="-60" y="110" width="150" height="30" as="geometry" />
        </mxCell>
        <mxCell id="2kn59-IRRM6XUF5Lcga7-149" value="DisplayMessage" style="text;html=1;align=center;verticalAlign=middle;whiteSpace=wrap;rounded=0;" vertex="1" parent="2kn59-IRRM6XUF5Lcga7-110">
          <mxGeometry x="410" y="235" width="150" height="30" as="geometry" />
        </mxCell>
        <mxCell id="2kn59-IRRM6XUF5Lcga7-158" value="" style="endArrow=classic;html=1;rounded=0;exitX=1.5;exitY=0.393;exitDx=0;exitDy=0;exitPerimeter=0;" edge="1" parent="2kn59-IRRM6XUF5Lcga7-110">
          <mxGeometry width="50" height="50" relative="1" as="geometry">
            <mxPoint x="160" y="100" as="sourcePoint" />
            <mxPoint x="405" y="100" as="targetPoint" />
            <Array as="points">
              <mxPoint x="200" y="100" />
            </Array>
          </mxGeometry>
        </mxCell>
        <mxCell id="2kn59-IRRM6XUF5Lcga7-159" value="record Weed mornitoring" style="text;html=1;align=center;verticalAlign=middle;whiteSpace=wrap;rounded=0;" vertex="1" parent="2kn59-IRRM6XUF5Lcga7-110">
          <mxGeometry x="170" y="70" width="190" height="30" as="geometry" />
        </mxCell>
        <mxCell id="2kn59-IRRM6XUF5Lcga7-160" value="" style="endArrow=classic;html=1;rounded=0;exitX=1.5;exitY=0.393;exitDx=0;exitDy=0;exitPerimeter=0;" edge="1" parent="2kn59-IRRM6XUF5Lcga7-110" target="whS2_qXfrG-GNI4Fqoqk-86">
          <mxGeometry width="50" height="50" relative="1" as="geometry">
            <mxPoint x="420" y="110" as="sourcePoint" />
            <mxPoint x="665" y="110" as="targetPoint" />
            <Array as="points">
              <mxPoint x="460" y="110" />
            </Array>
          </mxGeometry>
        </mxCell>
        <mxCell id="2kn59-IRRM6XUF5Lcga7-161" value="recordPest(pId, date, weed,usedH)" style="text;html=1;align=center;verticalAlign=middle;whiteSpace=wrap;rounded=0;" vertex="1" parent="2kn59-IRRM6XUF5Lcga7-110">
          <mxGeometry x="460" y="80" width="190" height="30" as="geometry" />
        </mxCell>
        <mxCell id="2kn59-IRRM6XUF5Lcga7-162" value="" style="html=1;verticalAlign=bottom;labelBackgroundColor=none;endArrow=open;endFill=0;dashed=1;rounded=0;exitX=1.5;exitY=0.377;exitDx=0;exitDy=0;exitPerimeter=0;" edge="1" parent="2kn59-IRRM6XUF5Lcga7-110">
          <mxGeometry width="160" relative="1" as="geometry">
            <mxPoint x="750" y="124.5" as="sourcePoint" />
            <mxPoint x="920" y="124.5" as="targetPoint" />
          </mxGeometry>
        </mxCell>
        <mxCell id="2kn59-IRRM6XUF5Lcga7-163" value=":PlantDay" style="shape=umlLifeline;perimeter=lifelinePerimeter;whiteSpace=wrap;html=1;container=1;dropTarget=0;collapsible=0;recursiveResize=0;outlineConnect=0;portConstraint=eastwest;newEdgeStyle={&quot;curved&quot;:0,&quot;rounded&quot;:0};" vertex="1" parent="2kn59-IRRM6XUF5Lcga7-110">
          <mxGeometry x="920" y="110" width="100" height="130" as="geometry" />
        </mxCell>
        <mxCell id="2kn59-IRRM6XUF5Lcga7-164" value="" style="endArrow=classic;html=1;rounded=0;" edge="1" parent="2kn59-IRRM6XUF5Lcga7-110">
          <mxGeometry width="50" height="50" relative="1" as="geometry">
            <mxPoint x="750" y="160" as="sourcePoint" />
            <mxPoint x="1050" y="160" as="targetPoint" />
            <Array as="points">
              <mxPoint x="765" y="160" />
            </Array>
          </mxGeometry>
        </mxCell>
        <mxCell id="2kn59-IRRM6XUF5Lcga7-136" value="add(PlantDate)" style="text;html=1;align=center;verticalAlign=middle;whiteSpace=wrap;rounded=0;" vertex="1" parent="2kn59-IRRM6XUF5Lcga7-110">
          <mxGeometry x="770" y="130" width="150" height="30" as="geometry" />
        </mxCell>
        <mxCell id="2kn59-IRRM6XUF5Lcga7-165" value="addChange(pId,date,weed, usedH)" style="text;html=1;align=center;verticalAlign=middle;whiteSpace=wrap;rounded=0;" vertex="1" parent="2kn59-IRRM6XUF5Lcga7-110">
          <mxGeometry x="760" y="90" width="150" height="30" as="geometry" />
        </mxCell>
        <mxCell id="2kn59-IRRM6XUF5Lcga7-167" value="" style="html=1;verticalAlign=bottom;labelBackgroundColor=none;endArrow=block;endFill=1;dashed=1;rounded=0;" edge="1" parent="2kn59-IRRM6XUF5Lcga7-110">
          <mxGeometry width="160" relative="1" as="geometry">
            <mxPoint x="1040" y="184.5" as="sourcePoint" />
            <mxPoint x="740" y="184.5" as="targetPoint" />
          </mxGeometry>
        </mxCell>
        <mxCell id="2kn59-IRRM6XUF5Lcga7-168" value="success" style="text;html=1;align=center;verticalAlign=middle;whiteSpace=wrap;rounded=0;" vertex="1" parent="2kn59-IRRM6XUF5Lcga7-110">
          <mxGeometry x="780" y="150" width="150" height="30" as="geometry" />
        </mxCell>
        <mxCell id="2kn59-IRRM6XUF5Lcga7-147" value="" style="html=1;points=[[0,0,0,0,5],[0,1,0,0,-5],[1,0,0,0,5],[1,1,0,0,-5]];perimeter=orthogonalPerimeter;outlineConnect=0;targetShapes=umlLifeline;portConstraint=eastwest;newEdgeStyle={&quot;curved&quot;:0,&quot;rounded&quot;:0};" vertex="1" parent="2kn59-IRRM6XUF5Lcga7-110">
          <mxGeometry x="410" y="240" width="10" height="20" as="geometry" />
        </mxCell>
        <mxCell id="2kn59-IRRM6XUF5Lcga7-170" style="edgeStyle=orthogonalEdgeStyle;rounded=0;orthogonalLoop=1;jettySize=auto;html=1;exitX=0.5;exitY=1;exitDx=0;exitDy=0;" edge="1" parent="2kn59-IRRM6XUF5Lcga7-110" source="2kn59-IRRM6XUF5Lcga7-149" target="2kn59-IRRM6XUF5Lcga7-149">
          <mxGeometry relative="1" as="geometry" />
        </mxCell>
        <mxCell id="2kn59-IRRM6XUF5Lcga7-171" value="" style="html=1;verticalAlign=bottom;labelBackgroundColor=none;endArrow=block;endFill=1;dashed=1;rounded=0;" edge="1" parent="2kn59-IRRM6XUF5Lcga7-110">
          <mxGeometry width="160" relative="1" as="geometry">
            <mxPoint x="735" y="200" as="sourcePoint" />
            <mxPoint x="410" y="200" as="targetPoint" />
          </mxGeometry>
        </mxCell>
        <mxCell id="2kn59-IRRM6XUF5Lcga7-172" value="message(&quot;Done, did you check for pesticides?&quot;)" style="text;html=1;align=center;verticalAlign=middle;whiteSpace=wrap;rounded=0;" vertex="1" parent="2kn59-IRRM6XUF5Lcga7-110">
          <mxGeometry x="450" y="170" width="250" height="30" as="geometry" />
        </mxCell>
        <mxCell id="2kn59-IRRM6XUF5Lcga7-125" value="" style="endArrow=classic;html=1;rounded=0;exitX=1.5;exitY=0.393;exitDx=0;exitDy=0;exitPerimeter=0;" edge="1" parent="whS2_qXfrG-GNI4Fqoqk-3" source="whS2_qXfrG-GNI4Fqoqk-84" target="whS2_qXfrG-GNI4Fqoqk-85">
          <mxGeometry width="50" height="50" relative="1" as="geometry">
            <mxPoint x="180" y="470" as="sourcePoint" />
            <mxPoint x="405" y="470" as="targetPoint" />
            <Array as="points">
              <mxPoint x="210" y="470" />
            </Array>
          </mxGeometry>
        </mxCell>
        <mxCell id="2kn59-IRRM6XUF5Lcga7-135" value="" style="endArrow=classic;html=1;rounded=0;" edge="1" parent="whS2_qXfrG-GNI4Fqoqk-3" source="whS2_qXfrG-GNI4Fqoqk-86" target="whS2_qXfrG-GNI4Fqoqk-87">
          <mxGeometry width="50" height="50" relative="1" as="geometry">
            <mxPoint x="780" y="535" as="sourcePoint" />
            <mxPoint x="1022.5" y="534.5" as="targetPoint" />
            <Array as="points">
              <mxPoint x="770" y="535" />
            </Array>
          </mxGeometry>
        </mxCell>
        <mxCell id="2kn59-IRRM6XUF5Lcga7-148" value="" style="html=1;verticalAlign=bottom;labelBackgroundColor=none;endArrow=block;endFill=1;dashed=1;rounded=0;exitX=1;exitY=1;exitDx=0;exitDy=-5;exitPerimeter=0;" edge="1" parent="whS2_qXfrG-GNI4Fqoqk-3" source="2kn59-IRRM6XUF5Lcga7-147" target="whS2_qXfrG-GNI4Fqoqk-85">
          <mxGeometry width="160" relative="1" as="geometry">
            <mxPoint x="430" y="890" as="sourcePoint" />
            <mxPoint x="430" y="910" as="targetPoint" />
            <Array as="points">
              <mxPoint x="450" y="955" />
              <mxPoint x="450" y="970" />
            </Array>
          </mxGeometry>
        </mxCell>
        <mxCell id="2kn59-IRRM6XUF5Lcga7-169" style="edgeStyle=orthogonalEdgeStyle;rounded=0;orthogonalLoop=1;jettySize=auto;html=1;curved=0;entryX=1;entryY=0;entryDx=0;entryDy=5;entryPerimeter=0;" edge="1" parent="whS2_qXfrG-GNI4Fqoqk-3" source="whS2_qXfrG-GNI4Fqoqk-85" target="2kn59-IRRM6XUF5Lcga7-147">
          <mxGeometry relative="1" as="geometry">
            <Array as="points">
              <mxPoint x="450" y="930" />
              <mxPoint x="450" y="945" />
            </Array>
          </mxGeometry>
        </mxCell>
      </root>
    </mxGraphModel>
  </diagram>
</mxfile>
